<?xml version="1.0" standalone="no"?>
<!DOCTYPE svg PUBLIC "-//W3C//DTD SVG 20010904//EN"
 "http://www.w3.org/TR/2001/REC-SVG-20010904/DTD/svg10.dtd">
<svg version="1.0" xmlns="http://www.w3.org/2000/svg"
 width="800.000000pt" height="450.000000pt" viewBox="0 0 800.000000 450.000000"
 preserveAspectRatio="xMidYMid meet">

<g transform="translate(0.000000,450.000000) scale(0.100000,-0.100000)"
fill="#000000" stroke="none">
<path d="M1587 3973 c-14 -21 -109 -171 -212 -333 -103 -162 -197 -311 -210
-330 -12 -19 -49 -75 -80 -125 -32 -49 -72 -112 -90 -140 -18 -27 -70 -110
-116 -183 -46 -72 -161 -254 -256 -402 l-172 -270 52 -31 c29 -16 59 -34 67
-39 27 -17 553 -316 625 -355 39 -21 150 -85 247 -141 l177 -102 108 60 c59
34 279 159 488 278 209 120 413 235 453 257 39 21 84 48 98 59 l25 19 -39 60
c-84 129 -594 927 -617 967 -5 9 -71 111 -145 227 -233 363 -262 409 -315 495
-22 36 -45 66 -51 66 -6 0 -23 -17 -37 -37z m22 -646 c1 -312 -1 -578 -5 -591
-4 -16 -22 -31 -62 -49 -150 -68 -193 -87 -197 -87 -2 0 -32 -13 -67 -29 -35
-16 -85 -39 -113 -51 -27 -12 -75 -33 -105 -47 -130 -59 -523 -233 -526 -233
-13 0 17 49 209 351 117 184 235 369 262 413 28 43 77 120 110 172 58 90 99
155 235 369 35 55 91 143 125 195 34 52 74 116 91 142 23 38 30 44 36 30 3 -9
7 -272 7 -585z m211 333 c89 -140 175 -274 191 -298 16 -23 29 -45 29 -47 0
-2 37 -62 83 -132 46 -70 148 -229 227 -353 78 -124 157 -247 175 -275 72
-112 195 -307 195 -311 0 -9 -22 -3 -82 25 -35 15 -97 43 -138 61 -41 19 -106
48 -145 65 -38 18 -104 47 -145 65 -41 18 -100 44 -130 58 -30 14 -140 63
-245 109 -104 46 -192 87 -195 92 -9 16 0 1215 9 1205 5 -5 82 -124 171 -264z
m-30 -1047 c33 -14 172 -77 285 -128 28 -12 104 -46 170 -75 66 -29 152 -67
190 -84 39 -18 120 -54 182 -81 106 -47 111 -50 96 -67 -9 -10 -19 -18 -23
-18 -8 0 -149 -79 -700 -394 -184 -105 -338 -192 -342 -194 -4 -2 -8 246 -8
552 l0 556 58 -26 c31 -14 73 -33 92 -41z m-190 -488 c0 -364 -3 -545 -10
-545 -6 0 -27 10 -48 23 -20 13 -64 38 -97 56 -33 18 -206 116 -385 218 -179
102 -350 199 -380 217 -30 17 -68 39 -85 48 -16 10 -40 23 -52 30 -13 6 -23
14 -23 18 0 4 39 24 88 45 48 21 121 54 162 73 41 19 210 94 375 167 165 73
329 147 365 163 36 17 71 31 78 31 9 1 12 -114 12 -544z"/>
<path d="M4231 2796 c-8 -9 -11 -78 -9 -227 l3 -214 43 -3 42 -3 0 104 c0 85
3 109 18 125 23 27 52 34 82 19 24 -12 25 -17 30 -127 l5 -115 45 0 45 0 0
120 c-1 94 -5 127 -18 152 -31 58 -106 79 -166 48 -16 -8 -31 -11 -35 -8 -3 4
-6 34 -6 69 0 47 -4 63 -16 68 -26 10 -51 7 -63 -8z"/>
<path d="M3893 2763 c-8 -3 -13 -22 -13 -43 0 -38 -1 -39 -37 -42 -36 -3 -38
-5 -38 -38 0 -33 2 -35 38 -38 l37 -3 0 -78 c0 -43 5 -92 11 -108 15 -44 61
-65 134 -61 l60 3 0 35 c0 34 -2 35 -40 38 -59 5 -65 15 -65 98 l0 73 63 3 62
3 0 35 0 35 -62 3 -63 3 0 35 c0 19 -6 36 -12 38 -30 10 -64 14 -75 9z"/>
<path d="M3445 2667 c-116 -64 -109 -263 11 -313 67 -28 173 -8 213 39 10 12
7 20 -14 41 l-25 25 -45 -24 c-37 -19 -51 -22 -77 -14 -32 9 -48 24 -48 47 0
9 28 12 108 12 59 0 113 4 121 9 20 13 8 84 -20 126 -51 73 -147 96 -224 52z
m133 -73 c43 -30 28 -44 -48 -44 -54 0 -70 3 -70 14 0 20 39 46 70 46 14 0 36
-7 48 -16z"/>
<path d="M4725 2673 c-66 -35 -95 -83 -95 -158 0 -76 40 -140 103 -164 64 -25
168 -3 206 42 10 13 7 20 -15 41 l-27 25 -44 -26 c-37 -22 -47 -23 -74 -14
-29 10 -58 36 -59 53 0 4 55 9 123 10 l122 3 -2 47 c-1 30 -10 62 -24 84 -40
65 -146 93 -214 57z m127 -80 c36 -32 23 -43 -52 -43 -74 0 -84 8 -53 42 20
23 80 24 105 1z"/>
<path d="M5219 2676 c-17 -9 -32 -10 -43 -4 -9 5 -31 8 -49 6 l-32 -3 0 -160
0 -160 43 -3 c23 -2 42 0 42 5 5 221 4 214 29 234 30 24 52 24 85 -2 23 -18
30 -19 61 -9 44 15 44 33 1 76 -27 27 -42 34 -72 34 -22 0 -51 -6 -65 -14z"/>
<path d="M5575 2676 c-74 -33 -116 -121 -96 -202 21 -85 81 -134 165 -134 53
0 134 32 143 57 3 8 -5 26 -19 40 l-26 25 -28 -20 c-44 -32 -75 -35 -111 -12
-18 11 -33 27 -33 35 0 12 19 15 114 15 137 0 146 5 126 77 -30 107 -139 162
-235 119z m135 -96 c5 -9 6 -20 3 -24 -8 -8 -128 -8 -136 0 -11 12 7 36 36 49
36 15 82 3 97 -25z"/>
<path d="M6436 2683 c-4 -5 -33 -8 -64 -8 l-57 0 0 -160 0 -160 40 0 40 0 3
120 c3 118 9 139 39 128 10 -4 13 -35 13 -129 l0 -124 40 0 40 0 0 114 c0 92
3 118 16 131 12 12 19 13 30 4 11 -9 14 -41 14 -131 l0 -119 43 3 42 3 3 115
c4 144 -7 185 -54 207 -33 16 -37 16 -69 -1 -31 -17 -35 -17 -56 -2 -25 17
-51 21 -63 9z"/>
<path d="M5927 2674 c-4 -4 -7 -66 -7 -137 l0 -129 35 -35 c33 -33 37 -35 87
-29 29 4 80 8 113 9 l60 2 0 160 0 160 -40 0 -40 0 -5 -110 c-3 -60 -8 -115
-12 -121 -14 -21 -59 -26 -84 -9 -22 14 -24 22 -26 128 l-3 112 -35 3 c-20 2
-39 0 -43 -4z"/>
<path d="M6457 2153 c-5 -9 -10 -49 -8 -71 1 -9 14 -12 44 -10 42 3 42 3 42
43 0 39 -1 40 -37 43 -20 2 -38 -1 -41 -5z"/>
<path d="M5301 2142 c-7 -2 -11 -30 -11 -69 0 -63 -1 -65 -22 -57 -46 15 -115
10 -145 -12 -52 -39 -73 -81 -73 -148 0 -74 22 -122 69 -153 40 -27 115 -31
148 -8 14 10 24 12 28 5 3 -5 24 -10 46 -10 l39 0 0 224 0 224 -34 4 c-19 2
-39 2 -45 0z m-33 -222 c32 -30 31 -102 -3 -135 -54 -54 -125 -15 -125 69 0
59 22 86 69 86 24 0 45 -7 59 -20z"/>
<path d="M3534 2119 c-43 -12 -67 -42 -73 -92 -6 -40 -8 -42 -46 -47 -38 -5
-40 -7 -40 -40 0 -34 1 -35 43 -38 l42 -3 0 -105 0 -105 48 3 47 3 2 90 c1 50
2 95 2 102 1 8 24 13 64 15 l62 3 0 35 0 35 -62 3 c-42 2 -63 7 -67 17 -8 22
4 45 23 46 9 0 32 1 51 2 32 2 35 5 38 36 2 20 -2 37 -10 42 -17 11 -84 10
-124 -2z"/>
<path d="M5998 2063 c-3 -35 -6 -38 -38 -43 -32 -5 -35 -8 -38 -42 -3 -36 -2
-37 35 -40 l38 -3 5 -98 c5 -93 7 -100 33 -123 24 -20 39 -24 98 -24 l69 0 0
40 c0 42 -2 43 -56 40 -45 -2 -55 18 -52 97 l3 68 63 3 63 3 -3 37 -3 37 -60
5 -60 5 -3 38 c-3 37 -4 37 -47 37 -43 0 -44 0 -47 -37z"/>
<path d="M460 2018 c0 -6 80 -118 178 -247 985 -1307 973 -1291 986 -1291 6 1
23 17 37 38 23 32 146 196 182 242 42 53 287 379 308 409 14 20 59 79 100 132
41 53 88 116 106 140 17 24 121 163 232 309 114 152 196 269 191 274 -7 7
-261 -132 -439 -241 -20 -13 -54 -33 -76 -45 -22 -12 -48 -27 -57 -33 -194
-115 -580 -335 -588 -335 -10 0 -53 25 -370 210 -432 253 -774 450 -782 450
-4 0 -8 -5 -8 -12z m210 -135 c51 -29 452 -262 470 -273 8 -5 87 -51 175 -102
232 -134 269 -156 283 -168 9 -8 12 -98 12 -388 0 -207 -4 -382 -8 -389 -4 -7
-54 51 -133 155 -387 513 -552 733 -726 963 -106 141 -193 259 -193 263 0 6
19 -4 120 -61z m1999 25 c-13 -18 -57 -78 -99 -133 -42 -55 -206 -273 -365
-485 -159 -212 -292 -387 -295 -390 -3 -3 -64 -83 -135 -179 l-130 -174 -3
393 c-2 382 0 420 28 420 4 0 48 25 98 55 50 30 94 55 98 55 3 0 18 8 32 19
15 10 47 29 72 43 25 14 86 49 135 78 50 29 162 94 250 145 88 51 198 115 245
142 47 28 87 49 89 47 2 -2 -7 -18 -20 -36z"/>
<path d="M3895 2018 c-69 -24 -108 -86 -108 -170 0 -102 66 -168 168 -168 103
0 165 64 165 170 0 34 -6 73 -14 88 -39 75 -129 109 -211 80z m119 -100 c9
-13 16 -43 16 -69 0 -39 -5 -51 -26 -68 -35 -28 -75 -27 -103 3 -28 30 -32 93
-8 130 15 22 25 26 62 26 34 0 47 -5 59 -22z"/>
<path d="M4776 2014 c-20 -11 -31 -13 -39 -5 -6 6 -28 11 -49 11 -49 0 -51 -8
-46 -186 l3 -139 45 0 45 0 5 113 c5 123 10 132 67 132 51 0 63 -27 63 -147
l0 -103 45 0 45 0 0 115 c0 128 -12 173 -54 200 -37 24 -96 28 -130 9z"/>
<path d="M5596 2020 c-36 -11 -96 -68 -96 -91 0 -36 63 -39 96 -4 24 26 66 33
94 15 27 -17 -3 -42 -73 -59 -85 -22 -117 -50 -117 -104 0 -59 42 -97 107 -97
26 1 59 7 73 15 17 9 29 10 37 3 6 -5 26 -8 44 -6 l31 3 -1 125 c-2 140 -10
161 -72 192 -36 19 -76 22 -123 8z m114 -201 c0 -26 -24 -49 -61 -61 -37 -11
-43 -10 -55 7 -10 14 -11 22 -3 32 21 25 119 43 119 22z"/>
<path d="M6855 2018 c-68 -24 -107 -84 -106 -165 1 -105 53 -164 151 -171 129
-9 213 93 180 219 -26 99 -127 151 -225 117z m120 -102 c26 -41 23 -108 -7
-136 -52 -48 -128 -6 -128 72 0 24 7 53 15 65 26 37 96 36 120 -1z"/>
<path d="M7317 2015 c-21 -11 -34 -12 -48 -4 -11 5 -34 9 -52 7 l-32 -3 0
-160 0 -160 43 -3 42 -3 0 103 c0 129 11 151 73 146 56 -4 67 -27 67 -150 l0
-98 45 0 45 0 0 119 c0 104 -3 125 -21 156 -34 57 -106 79 -162 50z"/>
<path d="M4230 2013 c-10 -246 0 -298 60 -323 18 -7 47 -10 72 -6 24 4 70 7
103 9 l60 2 0 160 0 160 -40 0 -40 0 -5 -112 c-4 -97 -8 -114 -25 -127 -23
-18 -53 -20 -75 -6 -11 7 -16 37 -20 127 l-5 118 -42 3 c-24 2 -43 0 -43 -5z"/>
<path d="M6343 2014 c-7 -3 -13 -21 -13 -40 l0 -34 49 0 c64 0 73 -12 69 -97
l-3 -68 -57 -3 -58 -3 0 -40 0 -39 163 2 162 3 0 35 0 35 -57 3 -57 3 -3 122
-3 122 -90 2 c-49 1 -96 -1 -102 -3z"/>
</g>
</svg>
