<?xml version="1.0" encoding="UTF-8"?>
<svg id="a" xmlns="http://www.w3.org/2000/svg" viewBox="0 0 660 260">
  <defs>
    <style>
      .cls-1 {
        fill: #fff;
        stroke-width: 0px;
      }
    </style>
  </defs>
  <g>
    <path class="cls-1" d="m129.98,239.12c12.53,0,23.28-7.5,28.05-18.25,1.16-2.62-.77-5.56-3.64-5.56h-48.83c-2.86,0-4.81,2.94-3.64,5.56,4.78,10.75,15.53,18.25,28.05,18.25"/>
    <path class="cls-1" d="m204.89,185.74c-7.94,0-14.38-6.43-14.38-14.38v-52.24c0-28.31-19.43-52.07-45.68-58.7-.96-7.46-7.33-13.24-15.06-13.24s-14.14,5.83-15.07,13.33c-23.56,6.11-41.53,26.05-44.77,50.64-.05.36-.1.72-.14,1.08-.06.49-.11.97-.15,1.46s-.08.98-.11,1.47c-.03.41-.06.81-.08,1.23-.04.82-.06,1.66-.06,2.5v52.47c0,7.91-6.38,14.32-14.27,14.38-3.77.03-6.88,2.93-6.88,6.71v.06c0,3.74,3.03,6.77,6.77,6.77h149.84c3.74,0,6.77-3.03,6.77-6.77.02-3.73-3.01-6.76-6.75-6.76h0Z"/>
    <g>
      <path class="cls-1" d="m173.36,50.1c16.85,3.61,29.72,18.12,31.31,35.28.18,1.9,1.83,3.33,3.78,3.14.92-.09,1.76-.53,2.35-1.24.59-.72.87-1.62.78-2.54-.93-10.02-4.97-19.29-11.69-26.83-6.67-7.46-15.34-12.52-25.08-14.61-.25-.05-.49-.08-.73-.08-1.6,0-3.05,1.12-3.39,2.75-.4,1.87.79,3.72,2.67,4.12Z"/>
      <path class="cls-1" d="m177.25,27.76c26.22,5.62,46.26,28.2,48.73,54.9.18,1.9,1.83,3.32,3.78,3.14.92-.09,1.76-.53,2.35-1.24.59-.72.87-1.62.78-2.54-1.36-14.76-7.33-28.44-17.23-39.52-9.83-11.01-22.61-18.45-36.95-21.53-.25-.05-.49-.08-.73-.08-1.6,0-3.05,1.12-3.39,2.75-.41,1.87.78,3.72,2.66,4.12Z"/>
      <path class="cls-1" d="m86.58,50.1c1.87-.4,3.07-2.26,2.67-4.13-.35-1.63-1.79-2.75-3.39-2.75-.24,0-.48.03-.73.08-9.74,2.09-18.41,7.14-25.08,14.61-6.72,7.52-10.77,16.8-11.69,26.83-.09.92.2,1.82.78,2.54s1.43,1.16,2.35,1.24c1.95.18,3.6-1.24,3.78-3.14,1.59-17.15,14.47-31.65,31.31-35.27Z"/>
      <path class="cls-1" d="m82.69,27.76c1.87-.4,3.07-2.26,2.67-4.13-.35-1.63-1.79-2.75-3.39-2.75-.25,0-.48.03-.73.08-14.35,3.08-27.12,10.52-36.95,21.53-9.91,11.09-15.86,24.76-17.23,39.52-.09.92.2,1.82.78,2.54.59.72,1.43,1.16,2.35,1.24,1.94.18,3.6-1.24,3.78-3.14,2.47-26.69,22.51-49.26,48.72-54.89Z"/>
    </g>
  </g>
  <g>
    <path class="cls-1" d="m291.87,195.67h-10v27.65h-.34l.83.87v-.38h4.14v-9.6h5.37c5.28,0,9.57-4.22,9.57-9.41s-4.29-9.13-9.57-9.13Zm4.7,9.13c0,2.95-2.26,5.09-5.37,5.09h-4.69v-9.98h4.69c3.16,0,5.37,2.01,5.37,4.89Z"/>
    <path class="cls-1" d="m347.02,204.33c0-4.94-4.06-8.66-9.45-8.66h-9.88v28.15h4.65v-10.57l.33.02,9.83,10.48.07.08h5.8v-.36l-9.8-10.35c4.63-.38,8.44-4.29,8.44-8.79Zm-4.82,0c0,2.76-2,4.54-5.09,4.54h-4.77v-8.92h4.77c3.14,0,5.09,1.68,5.09,4.38Z"/>
    <path class="cls-1" d="m384.42,195.28c-8.2,0-14.63,6.36-14.63,14.47s6.43,14.47,14.63,14.47,14.63-6.36,14.63-14.47-6.43-14.47-14.63-14.47Zm9.75,14.47c0,5.67-4.19,9.94-9.75,9.94s-9.71-4.27-9.71-9.94,4.17-9.94,9.71-9.94,9.75,4.27,9.75,9.94Z"/>
    <polygon class="cls-1" points="419.67 200.04 428.44 200.04 428.44 223.82 433.21 223.82 433.21 200.04 441.94 200.04 441.94 195.67 419.67 195.67 419.67 200.04"/>
    <path class="cls-1" d="m477.19,195.28c-8.2,0-14.63,6.36-14.63,14.47s6.42,14.47,14.63,14.47,14.63-6.36,14.63-14.47-6.42-14.47-14.63-14.47Zm9.75,14.47c0,5.67-4.19,9.94-9.75,9.94s-9.71-4.27-9.71-9.94,4.17-9.94,9.71-9.94,9.75,4.27,9.75,9.94Z"/>
    <path class="cls-1" d="m524.73,199.8c3.47,0,6.55,1.66,8.24,4.43l.13.21,3.97-2.43-.13-.21c-2.62-4.14-7.08-6.52-12.22-6.52-8.15,0-14.54,6.35-14.55,14.45v.02c.01,8.1,6.4,14.45,14.55,14.45,5.12,0,9.69-2.45,12.22-6.56l.13-.21-3.97-2.38-.13.21c-1.71,2.77-4.79,4.43-8.24,4.43-5.42,0-9.67-4.37-9.67-9.94s4.25-9.94,9.67-9.94Z"/>
    <path class="cls-1" d="m569.96,195.28c-8.2,0-14.63,6.36-14.63,14.47s6.42,14.47,14.63,14.47,14.63-6.36,14.63-14.47-6.42-14.47-14.63-14.47Zm9.75,14.47c0,5.67-4.19,9.94-9.75,9.94s-9.71-4.27-9.71-9.94,4.17-9.94,9.71-9.94,9.75,4.27,9.75,9.94Z"/>
    <polygon class="cls-1" points="612.45 219.45 612.45 195.67 607.88 195.67 607.88 223.58 607.89 223.82 624.82 223.82 624.82 219.45 612.45 219.45"/>
  </g>
  <g>
    <path class="cls-1" d="m599.05,78.27c-.07,0-.14,0-.22,0-8.85,0-17.18,3.22-23.56,9.1v-50.66c0-.5-.42-.92-.94-.92h-19.2c-.52,0-.94.41-.94.92l-.04,130.56c0,.5.42.92.94.92h19.2c.52,0,.94-.41.94-.92l.04-53.18c0-9.75,7.69-17.76,17.5-18.23,7.82-.38,14.96,4.02,17.65,11.41,1.81,5.01,1.71,10.26,1.71,15.5v10.71c0,9.6-.04,19.24-.04,28.84,0,1.65,0,3.3,0,4.95,0,.5.42.92.94.92h18.94c.52,0,.94-.41.94-.92l.04-55.43c0-18.41-15.21-33.47-33.91-33.58Z"/>
    <path class="cls-1" d="m458.53,75.11h-19.11c-.52,0-.94.41-.94.92v54.71c0,4.61-1.88,8.94-5.29,12.2-3.56,3.39-8.45,5.19-13.48,4.97-9.52-.45-16.97-8.21-16.97-17.67v-54.2c0-.5-.42-.92-.94-.92h-19.1c-.52,0-.94.41-.94.92v53.92c0,20.45,16.91,37.58,37.69,38.18.4.01.8.02,1.2.02,10.43,0,20.18-3.91,27.57-11.1,7.26-7.06,11.27-16.41,11.27-26.32v-54.72c-.02-.5-.45-.9-.95-.9Z"/>
    <path class="cls-1" d="m509.15,111.87c-10.95-1.75-15.63-4.99-15.63-10.86,0-5.45,5.17-9.11,12.87-9.11,6.97,0,12.83,3.68,14.95,9.37.07.2.22.36.43.45.19.08.39.08.59,0l15.71-6.64c.37-.16.55-.58.41-.94-4.85-11.84-16.92-18.91-32.29-18.91-21.77,0-33.16,13.07-33.16,25.97,0,15.24,10.48,24.43,32.04,28.1,11.26,2.15,16.06,5.52,16.06,11.26,0,6.19-5.82,9.89-15.56,9.89-7.45,0-14.29-4.04-17.42-10.28-.13-.26-.39-.42-.69-.42-.08,0-.2.01-.31.06l-16.55,7.07c-.19.07-.33.21-.41.38-.08.18-.07.38.01.56h0c3.67,7.64,13.12,20.44,35.15,20.44,25.19,0,36.47-14.12,36.47-28.11,0-15.35-10.69-24.6-32.68-28.29Z"/>
    <path class="cls-1" d="m329.33,35.94h-47.83c-.42,0-.83.17-1.13.47-.29.29-.44.67-.44,1.07v129.13c0,.84.7,1.53,1.56,1.53h17.77c.86,0,1.56-.69,1.56-1.53l.11-50.53c0-.52.43-.94.96-.94h27.42c22.38,0,39.91-17.4,39.91-39.62,0-10.77-4.1-20.76-11.55-28.15-7.44-7.38-17.51-11.44-28.35-11.44Zm14.68,52.33c-3.55,4.1-8.63,6.46-14.32,6.64l-12.35.02c-5.38.01-10.02,3.39-11.57,8.4l-.6,1.93c-.09.29-.36.49-.68.49h-2.94c-.4,0-.72-.31-.72-.69v-46.72c0-1.24,1.04-2.24,2.31-2.24h25.1c10.38,0,19.06,7.45,20.18,17.33.64,5.54-.93,10.81-4.42,14.84Z"/>
  </g>
</svg>