<svg width="486" height="430" viewBox="0 0 486 430" fill="none" xmlns="http://www.w3.org/2000/svg">
<path d="M383.514 29.0567C379.796 24.2899 383.557 17.495 388.384 16.9612C390.82 16.6913 393.059 17.377 395.037 18.5872C396.953 19.7597 398.38 19.663 400.03 18.1653C404.213 14.3699 414.432 13.7268 418.575 18.7279C419.622 19.9908 420.7 19.3261 421.835 18.7087C430.298 14.1051 439.267 15.3663 446.158 22.0816C447.039 22.9392 447.943 23.8144 448.422 24.9428C449.085 26.5069 450.008 26.7877 451.559 26.1839C457.66 23.8094 463.143 30.3999 462.705 35.0827C462.553 36.7088 462.141 38.2203 461.049 39.4709C460.626 39.9557 460.318 40.352 460.591 41.0831C462.13 45.2056 462.322 49.5736 462.831 53.8815C464.559 68.4684 464.555 83.1991 466.438 97.7696C467.073 102.678 467.484 107.639 468.889 112.427C469.371 114.07 469.751 115.73 470.496 117.302C471.092 118.561 471.43 119.927 471.103 121.404C470.737 123.061 469.821 123.949 468.216 124.567C459.113 128.076 449.835 131.038 440.324 133.154C429.971 135.457 419.78 138.446 409.42 140.632C399.11 142.807 388.921 145.608 378.561 147.388C367.716 149.251 356.881 151.205 346.021 152.995C341.734 153.702 337.47 154.571 333.227 155.512C331.313 155.937 329.377 155.49 327.458 156.003C326.524 156.252 325.916 155.143 325.444 154.364C323.632 151.375 322.279 148.161 321.116 144.886C318.151 136.531 315.233 128.158 312.409 119.755C310.362 113.668 308.106 107.658 306.356 101.457C305.139 97.1421 304.094 92.8316 303.39 88.4179C303.19 87.1682 303.658 86.3032 304.55 85.5326C306.815 83.5753 308.9 81.3926 311.431 79.7716C312.5 79.0866 313.04 78.0079 313.453 77.0445C315.278 72.7843 318.964 70.6462 322.674 68.4998C323.895 67.793 325.227 67.2808 326.622 67.0591C329.307 66.6335 331.499 65.3031 333.613 63.6729C336.172 61.6986 338.837 59.8594 341.49 58.0108C342.991 56.9647 344.558 56.0378 345.567 54.4162C345.945 53.8077 346.555 53.3327 347.248 53.0357C352.443 50.8105 356.671 47.0192 361.507 44.2132C362.452 43.6643 363.272 42.9039 364.198 42.3146C365.709 41.3524 366.757 40.3178 367.164 38.3077C367.95 34.4366 371.414 32.718 375.422 33.7579C375.894 33.88 376.217 33.7609 376.602 33.5079C378.897 32.0065 381.209 30.5369 383.514 29.0567Z" fill="#231F20"/>
<path d="M464.93 123.727C462.69 114.129 461.856 104.393 460.127 94.6364C458.853 94.9642 457.735 95.2603 456.612 95.54C450.554 97.0466 444.584 98.9247 438.321 99.5495C435.295 99.8513 432.287 100.219 429.346 101.282C424.291 103.11 419.296 105.156 413.983 106.238C411.396 106.764 408.746 106.826 406.19 107.442C395.878 109.931 385.575 112.46 375.274 114.985C372.832 115.584 370.455 116.405 368.206 117.518C363.373 119.911 358.384 121.324 352.893 121.218C347.616 121.116 342.466 122.171 337.657 124.311C337.718 125.965 337.888 127.489 337.792 128.995C337.724 130.052 337.582 131.337 336.201 131.6C334.835 131.86 334.168 130.909 333.491 129.869C332.548 128.421 332.69 126.522 331.383 125.111C326.869 127.297 322.207 128.984 316.992 128.645C317.181 129.379 317.285 129.985 317.492 130.555C318.704 133.888 319.946 137.21 321.165 140.54C322.657 144.616 324.184 148.675 326.128 152.567C326.871 154.053 327.876 154.729 329.613 154.549C331.99 154.303 334.332 153.934 336.673 153.454C343.271 152.103 349.892 150.862 356.498 149.548C363.699 148.116 371.04 147.446 378.213 145.995C388.771 143.861 399.275 141.399 409.772 138.974C415.959 137.543 422.153 135.986 428.313 134.37C433.294 133.063 438.317 131.917 443.327 130.732C448.382 129.536 453.305 127.762 458.242 126.108C460.473 125.358 462.91 125.122 464.93 123.727Z" fill="#EA6953"/>
<path d="M334.962 114.624C339.367 113.771 343.474 113.071 347.536 112.17C361.299 109.12 375.07 106.094 388.791 102.86C394.931 101.413 401.014 99.7017 407.043 97.8062C412.009 96.244 417.066 95.0242 422.267 94.4136C427.575 93.7909 432.722 92.4074 437.772 90.6533C443.592 88.632 449.044 85.5384 455.277 84.7065C456.346 84.5636 457.347 83.9561 458.409 83.6836C459.306 83.4538 459.6 82.9145 459.554 82.088C459.367 78.8039 459.164 75.5198 458.98 72.2351C458.742 68.0132 457.815 63.8859 457.163 59.7263C456.664 56.5451 456.34 53.2891 455.119 50.3186C453.652 50.6962 452.248 51.0659 450.838 51.4184C448.283 52.0575 445.719 52.6668 443.169 53.3262C439.469 54.2824 436.322 56.5298 432.756 57.8079C430.916 58.4673 428.892 58.8851 427.316 59.9516C424.409 61.9181 421.181 62.8388 417.894 63.7219C412.329 65.2171 406.698 66.4649 401.229 68.3165C398.436 69.2617 395.499 69.5558 392.589 69.9713C389.875 70.359 387.015 70.1411 384.474 71.2938C376.155 75.0674 367.531 77.8341 358.617 79.834C352.953 81.1048 347.376 82.7272 341.65 83.7846C336.86 84.6695 332.258 86.4147 327.214 87.2294C332.548 95.624 332.479 105.432 334.962 114.624Z" fill="#EA6953"/>
<path d="M335.957 130.716C336.601 130.122 336.686 129.411 336.702 128.666C336.741 126.943 336.469 125.253 336.094 123.587C334.668 117.252 332.51 111.08 331.666 104.618C331.139 100.578 329.972 96.7185 328.6 92.9361C327.734 90.5484 326.228 88.4012 325.15 86.0805C322.974 81.391 324.215 73.8825 331.43 73.0118C333.818 72.7236 336.189 72.7101 338.564 73.0582C342.329 73.6111 345.981 74.6724 349.676 75.5399C353.121 76.3486 356.545 77.2869 360.122 77.3256C365.061 77.3792 367.766 74.7015 366.037 69.9413C365.954 69.7117 365.912 69.4675 365.859 69.2282C364.907 64.9462 366.363 61.7464 370.275 59.7783C371.524 59.15 372.864 58.6493 374.215 58.2797C381.75 56.2176 389.481 56.1001 397.198 56.3227C405.888 56.5737 414.569 57.1265 423.254 57.5449C425.364 57.6472 427.426 57.3467 429.385 56.573C430.898 55.9751 432.363 55.1107 432.577 53.3362C432.763 51.7931 431.4 51.0257 430.354 50.2231C427.206 47.8076 423.59 46.2733 419.919 44.8763C411.994 41.8613 403.677 40.296 395.463 38.3674C390.347 37.1657 385.27 35.7844 380.066 34.9596C378.417 34.6982 376.759 35.1664 375.195 34.8842C371.801 34.2718 368.739 36.1554 368.178 39.5195C368.024 40.4388 368.35 41.0798 369.279 41.3426C377.247 43.602 384.811 47.3025 393.27 47.8502C394.897 47.9551 396.479 47.6655 398.1 47.8702C402.58 48.4372 406.991 49.356 411.386 50.3603C411.7 50.4321 412.317 50.2733 412.314 50.9422C412.054 51.2404 411.753 51.1392 411.459 51.0663C404.082 49.2505 396.586 48.6788 389.003 48.4114C380.602 48.115 372.226 47.017 363.798 47.4804C360.039 47.6869 356.306 48.2789 353.4 50.9371C352.283 51.9589 351.119 52.6652 349.733 53.1345C347.811 53.7852 345.943 54.7006 345.694 56.9279C345.459 59.0309 347.214 60.158 348.681 61.2407C349.958 62.1841 351.394 62.909 352.721 63.79C353.504 64.3094 354.251 64.9928 353.875 66.0548C353.531 67.0293 352.6 67.3598 351.651 67.4151C350.374 67.4887 349.091 67.4782 347.81 67.4609C342.151 67.3829 336.522 66.4226 330.828 67.3451C324.837 68.3158 319.805 70.9337 315.849 75.4554C313.522 78.1164 312.998 81.2003 314.954 84.4235C315.65 85.5693 316.293 86.7472 316.931 87.9254C317.479 88.9398 318.172 89.3282 319.311 88.776C320.211 88.3388 320.969 88.4958 321.33 89.5966C323.655 96.6848 326.535 103.579 328.687 110.729C330.416 116.474 332.11 122.232 333.913 127.954C334.247 129.024 334.499 130.372 335.957 130.716Z" fill="#FFB60F"/>
<path d="M453.354 37.9826C454.698 39.9663 456.652 40.1077 458.601 39.508C460.558 38.9051 461.106 37.1191 461.217 35.2619C461.566 29.4063 456.174 25.4822 450.625 27.6518C449.207 28.2056 448.543 27.9781 447.85 26.7127C444.569 20.7122 439.115 18.0371 432.65 17.0557C428.589 16.4394 425.132 18.0282 421.836 20.2179C419.596 21.7051 418.916 21.5786 417.107 19.6299C415.351 17.7408 413.26 16.7291 410.666 16.545C406.565 16.255 402.906 17.2473 399.797 19.9669C398.395 21.1941 397.044 21.3354 395.484 20.2934C394.097 19.3658 392.525 18.8285 390.896 18.4733C387.339 17.6985 384.469 19.6505 383.621 23.424C382.894 26.6551 384.839 29.5754 388.241 30.3386C389.924 30.716 391.625 30.7006 393.339 30.5898C394.09 30.5412 395.001 30.287 395.511 31.1481C396.483 32.7907 398.141 33.2386 399.793 33.7323C404.498 35.1371 409.127 34.1428 413.744 33.2428C414.983 33.0012 416.014 32.9817 416.926 33.9778C418.712 35.9302 421.057 36.76 423.59 37.1489C427.425 37.7377 431.251 37.5613 435.061 36.9123C437.65 36.4722 440.329 35.1237 442.539 37.8429C442.735 38.0845 443.202 38.1533 443.559 38.2081C446.768 38.7049 449.979 39.0402 453.354 37.9826Z" fill="#98C5EC"/>
<path d="M305.195 92.0222C307.671 101.596 310.507 110.85 314.043 119.974C318.967 120.328 323.545 118.902 328.061 117.169C328.781 116.892 329.034 116.385 328.766 115.573C328.039 113.366 327.569 111.09 326.794 108.887C325.176 104.282 323.112 99.8382 321.899 95.0846C321.442 93.292 320.655 91.5841 320.172 90.2557C314.876 89.4801 310.494 92.9467 305.195 92.0222Z" fill="#E58361"/>
<path d="M466.412 123.076C469.883 122.156 470.518 120.734 469.033 117.719C468.223 116.074 467.561 114.375 467.065 112.598C465.492 106.97 464.998 101.163 464.265 95.4101C462.412 80.8566 462.497 66.1391 460.713 51.575C460.284 48.0674 460.064 44.5159 458.783 41.0768C457.47 41.1803 456.217 41.2796 455.038 41.3725C454.766 41.8897 454.778 42.3037 454.772 42.7391C454.747 44.3262 455.493 45.7028 455.924 47.1614C458.049 54.3538 458.906 61.7827 459.998 69.1622C460.712 73.9795 460.751 78.8803 460.928 83.7253C461.084 88.0487 461.237 92.3503 461.802 96.6357C462.32 100.572 462.782 104.519 463.458 108.428C464.298 113.299 464.998 118.208 466.412 123.076Z" fill="#98C5EC"/>
<path d="M453.092 40.5606C452.993 39.3697 452.344 39.7174 451.742 39.797C449.315 40.116 446.874 40.2236 444.434 40.0215C442.748 39.8814 441.106 39.4418 440.07 37.9974C439.398 37.0612 438.727 37.0894 437.735 37.2796C434.498 37.898 431.262 38.6381 427.951 38.6785C423.428 38.7335 418.945 38.5286 415.78 34.5384C415.285 33.9141 414.71 34.2087 414.11 34.2805C411.191 34.6269 408.389 35.6529 405.439 35.7851C401.887 35.9436 398.32 35.6163 395.589 33.1863C394.379 32.1098 393.423 31.879 391.987 31.9687C389.582 32.1188 387.197 31.892 385.203 30.3019C384.725 29.921 384.369 29.9589 383.9 30.2542C382.336 31.2371 380.754 32.1944 378.803 33.3928C386.949 34.6509 394.424 36.6923 401.971 38.4062C411.648 40.6058 421.351 42.7707 429.894 48.21C430.441 48.5576 430.871 48.4149 431.425 48.2033C433.137 47.5489 434.874 46.954 436.625 46.4115C437.362 46.1837 438.173 46.102 438.741 47.1475C436.515 48.0227 434.41 48.8505 432.051 49.7779C434.401 51.6719 434.823 53.7514 433.326 56.4135C434.197 56.0686 434.6 55.937 434.978 55.7549C438.381 54.1211 441.609 51.9976 445.422 51.4437C448.3 51.0263 450.903 49.7172 453.735 49.2072C454.737 49.0268 454.772 48.3991 454.524 47.5636C453.975 45.7122 453.395 43.8632 453.416 41.8C453.033 41.8759 452.791 41.8894 452.576 41.9707C449.717 43.0473 446.869 44.1541 444 45.2042C443.185 45.5029 442.178 46.016 441.906 44.3638C445.583 42.8918 449.274 41.4864 453.092 40.5606Z" fill="white"/>
<path d="M367.049 76.8277C371.558 75.4287 375.654 74.0286 379.607 72.243C382.668 70.8604 385.653 69.394 389.127 69.1805C394.524 68.8489 399.757 67.6095 404.915 65.9783C408.649 64.7972 412.417 63.6438 416.25 62.8773C419.063 62.3155 421.592 61.0583 424.344 60.381C419.054 60.2978 413.806 59.9645 408.556 59.6914C407.499 59.6361 406.491 59.7178 405.483 60.0578C400.845 61.6201 396.2 63.1585 391.555 64.7C390.714 64.9794 389.795 65.4233 389.398 63.8342C393.568 62.4306 397.67 61.0505 401.773 59.6705C401.738 59.5048 401.703 59.3394 401.669 59.1737C398.313 59.0895 394.955 58.9107 391.6 58.942C385.538 58.9997 379.468 59.0471 373.562 60.7552C368.27 62.2854 366.327 65.341 368.029 69.7966C368.587 69.6528 369.169 69.5144 369.744 69.3521C370.373 69.1736 371.01 69.0406 371.21 69.8918C371.377 70.6046 370.857 70.851 370.278 70.9979C369.574 71.1769 368.873 71.3586 368.236 71.5223C368.158 72.5037 368.179 73.3037 368.011 74.0616C367.831 74.871 367.473 75.6406 367.049 76.8277Z" fill="white"/>
<path d="M355.879 79.3144C353.145 78.6974 350.94 78.2128 348.741 77.6954C348.063 77.5354 347.431 77.5701 346.758 77.7557C343.096 78.7663 339.428 79.7548 335.752 80.7143C335.151 80.871 334.521 81.3015 333.598 80.6758C335.026 79.1685 336.945 79.0565 338.618 78.5135C340.43 77.9242 342.308 77.536 344.156 77.0602C339.747 75.5835 335.42 74.507 330.906 75.4189C327.037 76.201 325.93 77.6166 325.998 81.6913C327.208 81.3798 328.389 81.0563 329.58 80.7786C330.072 80.6643 330.713 80.3104 330.923 81.1578C331.121 81.9598 330.477 82.0574 329.942 82.162C328.582 82.4275 327.214 82.6587 325.87 82.9003C326.178 86.3163 326.4 86.4853 329.411 85.7557C329.948 85.6259 330.48 85.4818 331.019 85.3616C335.497 84.3641 339.862 82.9422 344.416 82.1966C348.132 81.5861 351.75 80.3772 355.879 79.3144Z" fill="white"/>
<path d="M337.281 123.007C342.837 120.471 348.633 120.105 354.444 120.137C358.54 120.162 362.302 119.187 365.854 117.289C369.217 115.492 372.709 114.018 376.421 113.197C388.138 110.606 399.637 107.073 411.527 105.226C416.815 104.405 421.783 102.406 426.83 100.698C428.957 99.9781 431.026 99.0863 433.313 98.728C438.018 97.9889 442.788 97.6845 447.43 96.4445C451.089 95.4664 454.706 94.2588 458.508 93.8213C459.327 93.7274 460.155 93.3396 459.982 91.9891C459.689 89.7122 459.702 87.3971 459.592 85.2186C456.699 85.9634 453.852 86.635 451.044 87.4425C449.46 87.8976 447.827 88.1941 446.322 88.9396C441.082 91.5345 435.514 93.1462 429.863 94.5821C425.507 95.6887 421.011 95.7853 416.66 96.7793C407.749 98.8155 399.15 101.995 390.291 104.184C377.5 107.345 364.611 110.113 351.771 113.08C347.832 113.991 343.883 114.83 339.881 115.412C338.515 115.611 337.158 115.873 335.718 116.12C336.096 118.45 336.372 120.621 337.281 123.007Z" fill="white"/>
<path d="M329.299 118.126C324.562 119.884 319.868 121.52 314.641 121.486C315.188 123.363 315.599 125.072 316.337 126.698C316.644 127.373 317.027 127.564 317.729 127.581C322.622 127.697 326.996 126.049 331.305 123.87C330.598 121.851 329.959 120.018 329.299 118.126Z" fill="#FED1D3"/>
<path d="M332.899 65.6947C338.407 65.2568 343.485 66.071 348.585 66.1223C349.871 66.1352 351.215 66.4182 352.58 65.4834C349.588 62.9803 345.556 61.7845 344.193 57.7055C340.42 60.2409 336.74 62.7008 332.899 65.6947Z" fill="white"/>
<path d="M312.189 80.5995C309.532 82.3872 307.276 84.4237 305.167 86.5858C304.205 87.5716 304.68 89.0354 305.029 90.2343C305.302 91.175 306.338 91.0332 307.081 91.0598C310.132 91.1689 312.874 89.8322 315.924 89.2331C314.532 86.3378 312.806 83.7999 312.189 80.5995Z" fill="white"/>
<path d="M360.675 46.4391C367.389 45.6179 373.679 46.3934 380.063 46.5544C379.922 46.3223 379.886 46.1765 379.803 46.1402C375.887 44.4293 371.63 43.6652 367.763 41.8084C367.551 41.707 367.137 41.8207 366.916 41.9758C364.936 43.3652 362.976 44.7865 360.675 46.4391Z" fill="white"/>
<mask id="path-16-outside-1_353_33" maskUnits="userSpaceOnUse" x="0" y="128.001" width="486" height="302" fill="black">
<rect fill="white" y="128.001" width="486" height="302"/>
<path d="M30.3178 312.8C13.881 307.67 2.42507 292.405 1.05534 274.137C0.930822 272.01 1.05534 269.883 1.05534 267.63C0.308217 232.471 30.5668 213.452 62.0706 224.463C68.5457 226.715 73.2775 231.22 76.3905 237.726C81.7449 248.862 67.176 260.123 60.5763 250.489C57.7124 246.359 59.8292 242.481 56.9652 238.352C47.3771 224.213 35.5476 224.463 28.3254 228.967C14.5036 237.601 12.1377 268.756 33.9289 293.656C46.1319 307.544 62.6932 307.67 75.3943 294.156C76.8886 292.53 80.0016 289.527 81.4959 290.528C83.7372 292.029 80.6242 296.158 79.0055 298.035C68.2966 312.174 47.6262 318.18 30.3178 312.8Z"/>
<path d="M85.5866 311.924C84.964 306.293 87.3299 305.918 90.1938 301.288C91.5636 299.036 91.6881 292.78 91.8126 287.024C92.0617 274.387 91.9371 261.624 91.8126 248.987C91.8126 242.981 91.9371 235.724 89.9448 233.722C87.2053 230.969 85.4621 229.968 85.4621 223.837H119.083C119.083 229.968 117.339 230.969 114.6 233.722C112.608 235.724 112.732 242.981 112.732 248.987V265.003C113.479 266.754 115.223 267.63 118.087 267.505H134.274C137.138 267.505 138.882 266.754 139.629 265.003V248.987C139.629 242.981 139.753 235.724 137.761 233.722C135.021 230.969 133.278 229.968 133.278 223.837H166.899C166.899 229.968 165.155 230.969 162.416 233.722C160.424 235.724 160.548 242.981 160.548 248.987C160.424 261.624 160.299 274.387 160.548 287.024C160.673 292.78 160.797 299.036 162.167 301.288C165.031 305.918 167.397 306.293 166.774 311.924H133.403C132.78 306.293 135.021 305.918 138.01 301.288C139.38 299.161 139.629 292.905 139.629 287.024V272.385C139.006 271.134 137.512 270.633 135.644 270.633H116.717C114.849 270.633 113.355 271.134 112.732 272.385V287.024C112.732 292.905 112.981 299.161 114.351 301.288C117.215 305.918 119.581 306.293 118.958 311.924H85.5866Z"/>
<path d="M174.976 311.924C174.976 301.038 178.587 303.29 179.459 298.536C183.194 278.141 183.07 250.614 178.463 233.222C177.716 230.594 174.976 231.47 174.976 224.338H178.463C194.401 224.338 210.465 223.963 226.528 224.338C237.735 224.588 244.085 233.347 241.097 244.232C240.474 246.61 237.735 249.863 235.618 250.113C229.267 251.114 230.139 245.734 224.535 236.6C222.543 233.472 220.053 230.094 216.94 228.092C213.204 225.839 208.597 226.34 206.231 230.719C200.752 241.48 200.627 262.25 201.624 264.753C202.246 268.381 209.717 261.124 212.208 257.871C213.453 256.369 215.321 254.117 216.94 254.117C229.018 254.117 229.392 281.894 217.064 281.894C215.321 282.019 214.076 280.393 212.83 279.267C210.589 277.015 208.721 274.387 206.231 272.385C203.865 270.633 201.748 269.883 201.624 274.762C201.624 294.907 204.737 318.806 219.181 307.044C223.29 303.666 226.154 298.661 228.645 293.781C232.007 286.899 234.497 284.397 238.731 285.648C242.715 286.899 244.832 293.03 243.338 299.161C241.595 306.293 236.365 311.799 229.018 311.924C211.834 312.299 194.526 311.924 177.217 311.924H174.976Z"/>
<path d="M249.411 311.924C249.411 301.038 253.022 303.29 253.894 298.536C257.63 278.141 257.505 250.614 252.898 233.222C252.151 230.594 249.411 231.47 249.411 224.338H252.898C268.837 224.338 284.9 223.963 300.963 224.338C312.17 224.588 318.52 233.347 315.532 244.232C314.909 246.61 312.17 249.863 310.053 250.113C303.702 251.114 304.574 245.734 298.971 236.6C296.978 233.472 294.488 230.094 291.375 228.092C287.639 225.839 283.032 226.34 280.666 230.719C275.187 241.48 275.063 262.25 276.059 264.753C276.681 268.381 284.153 261.124 286.643 257.871C287.888 256.369 289.756 254.117 291.375 254.117C303.453 254.117 303.827 281.894 291.499 281.894C289.756 282.019 288.511 280.393 287.266 279.267C285.024 277.015 283.157 274.387 280.666 272.385C278.3 270.633 276.183 269.883 276.059 274.762C276.059 294.907 279.172 318.806 293.616 307.044C297.725 303.666 300.589 298.661 303.08 293.781C306.442 286.899 308.932 284.397 313.166 285.648C317.151 286.899 319.268 293.03 317.773 299.161C316.03 306.293 310.8 311.799 303.453 311.924C286.27 312.299 268.961 311.924 251.653 311.924H249.411Z"/>
<path d="M463.684 175.04C464.804 180.42 462.812 185.425 460.571 188.928C458.329 192.682 455.59 195.435 453.099 197.812C447.994 202.567 443.511 205.945 440.025 208.322C432.429 213.702 423.09 218.332 415.619 220.459C408.147 222.711 402.917 222.962 403.167 221.21C403.416 219.208 410.14 216.956 417.237 213.702C424.46 210.574 431.931 206.445 435.168 204.443C439.153 201.941 443.138 199.063 447.247 195.685C451.232 192.181 455.341 188.303 457.707 183.423C458.827 180.92 459.325 178.293 458.703 175.665C458.205 173.038 456.586 170.535 454.22 168.783C449.364 165.155 442.391 164.279 435.044 165.155C420.101 166.406 403.789 170.91 386.73 177.041C378.138 180.17 369.297 183.798 360.705 188.553C356.347 190.93 352.113 193.558 348.128 196.561C344.144 199.689 340.283 203.317 338.042 207.822C335.676 212.076 336.299 217.456 339.163 221.835C342.027 226.215 346.634 229.468 351.615 232.095C356.596 234.723 362.199 236.6 367.803 238.352C373.53 240.103 379.507 241.229 385.609 243.106C391.586 244.983 397.688 247.486 402.793 251.99C405.283 254.242 407.525 256.995 409.019 260.248C409.268 260.874 409.517 261.624 409.642 262.375C417.611 261.124 425.58 260.123 433.674 259.372C442.889 258.371 443.138 260.999 433.674 262C430.063 262.375 421.845 263.001 410.264 264.753C410.513 266.754 410.638 268.631 410.513 270.633C409.642 277.64 406.155 284.147 401.548 289.402C397.065 294.782 391.711 299.537 385.734 303.541C373.78 311.548 359.709 316.804 344.891 319.807C341.155 320.432 337.544 321.183 333.435 321.433C331.442 321.558 328.703 320.808 327.333 318.68C325.964 316.929 325.465 314.551 325.714 312.299C325.964 310.047 327.209 308.045 328.329 306.544C329.326 304.792 330.446 303.165 331.691 301.539C334.057 298.411 336.672 295.282 339.661 292.53C351.366 281.269 366.308 273.261 382.496 268.381C390.341 265.879 398.435 264.127 406.778 262.751C405.781 260.123 404.287 257.746 402.295 255.619C397.314 250.739 390.465 247.736 383.617 245.859C376.644 243.857 369.297 242.356 362.199 239.978C355.101 237.601 348.128 234.723 342.027 229.968C339.038 227.591 336.299 224.588 334.805 220.834C334.306 219.959 333.933 219.083 333.808 218.082C333.559 217.081 333.186 216.205 333.186 215.079C332.937 213.077 333.186 210.95 333.808 209.073C334.929 205.194 337.295 202.066 339.785 199.313C342.276 196.561 345.015 194.183 348.004 192.181C353.732 187.927 359.833 184.549 366.059 181.421C378.262 175.54 390.59 171.036 402.544 167.407C414.498 163.904 426.078 161.151 437.161 160.275C442.764 159.9 448.617 160.4 453.597 162.778C456.088 163.904 458.454 165.53 460.197 167.782C462.065 169.909 463.186 172.412 463.684 175.04ZM406.778 274.637C407.649 271.509 407.898 268.381 407.4 265.253C406.404 265.503 405.532 265.628 404.536 265.754C390.092 268.381 370.667 272.885 351.988 285.648C347.381 288.901 343.023 292.655 338.914 297.034C336.921 299.161 334.929 301.539 333.186 303.916C332.314 305.167 331.318 306.418 330.571 307.795L329.326 309.797C328.952 310.422 328.703 311.048 328.578 311.674C327.831 314.176 328.827 317.554 331.069 318.43C333.31 319.306 336.921 318.305 340.034 317.93C346.509 316.804 353.109 315.302 359.584 313.175C372.41 308.796 385.235 302.039 395.322 292.154C400.303 287.024 404.91 281.394 406.778 274.637Z"/>
<path d="M416.158 311.924C416.158 301.038 419.769 303.29 420.64 298.536C424.376 278.141 424.251 250.614 419.644 233.222C418.897 230.594 416.158 231.47 416.158 224.338H419.644C435.583 224.338 451.646 223.963 467.709 224.338C478.916 224.588 485.267 233.347 482.278 244.232C481.656 246.61 478.916 249.863 476.799 250.113C470.449 251.114 471.32 245.734 465.717 236.6C463.725 233.472 461.234 230.094 458.121 228.092C454.385 225.839 449.778 226.34 447.412 230.719C441.933 241.48 441.809 262.25 442.805 264.753C443.428 268.381 450.899 261.124 453.389 257.871C454.635 256.369 456.502 254.117 458.121 254.117C470.2 254.117 470.573 281.894 458.246 281.894C456.502 282.019 455.257 280.393 454.012 279.267C451.771 277.015 449.903 274.387 447.412 272.385C445.046 270.633 442.93 269.883 442.805 274.762C442.805 294.907 445.918 318.806 460.362 307.044C464.472 303.666 467.336 298.661 469.826 293.781C473.188 286.899 475.679 284.397 479.912 285.648C483.897 286.899 486.014 293.03 484.52 299.161C482.776 306.293 477.546 311.799 470.2 311.924C453.016 312.299 435.707 311.924 418.399 311.924H416.158Z"/>
<path d="M173.55 427.049C157.113 421.919 145.657 406.654 144.287 388.386C144.163 386.259 144.287 384.132 144.287 381.88C143.54 346.72 173.799 327.702 205.302 338.713C211.777 340.965 216.509 345.469 219.622 351.976C224.977 363.112 210.408 374.373 203.808 364.738C200.944 360.609 203.061 356.73 200.197 352.601C190.609 338.462 178.779 338.713 171.557 343.217C157.735 351.85 155.369 383.006 177.161 407.905C189.364 421.794 205.925 421.919 218.626 408.406C220.12 406.779 223.233 403.776 224.728 404.777C226.969 406.279 223.856 410.408 222.237 412.285C211.528 426.424 190.858 432.43 173.55 427.049Z"/>
<path d="M224.924 426.173C224.924 421.544 227.913 421.419 229.158 419.792C243.727 401.524 250.451 373.872 257.922 352.977C260.164 346.595 254.809 345.219 257.798 339.964C258.918 337.587 274.857 337.837 276.849 339.088C278.966 340.214 279.962 343.342 280.834 345.719C286.562 361.11 291.916 376.75 297.644 392.14C300.757 400.273 303.621 408.531 308.353 416.414C310.096 419.792 314.579 420.418 314.081 426.173H283.823C278.593 421.043 285.441 419.792 285.068 416.789C284.57 412.535 282.702 408.656 281.208 404.652C280.585 403.026 277.846 401.399 275.978 401.274C267.51 400.899 258.918 401.024 250.451 401.149C248.832 401.149 246.84 401.524 245.968 403.276C245.595 404.277 239.618 413.286 241.112 419.917C241.361 421.419 244.1 424.797 242.108 426.173H224.924ZM248.957 394.768H277.721C262.529 352.101 264.148 353.352 262.156 357.982C257.798 369.993 253.564 382.005 248.957 394.768Z"/>
<path d="M322.345 426.173C321.723 420.543 324.089 420.168 326.952 415.538C328.322 413.286 328.447 407.03 328.571 401.274C328.82 388.637 328.696 375.874 328.571 363.237C328.571 357.231 328.696 349.974 326.703 347.972C323.964 345.219 322.221 344.218 322.221 338.087H355.841C355.841 344.218 354.098 345.219 351.359 347.972C349.366 349.974 349.491 357.231 349.491 363.237V378.001C350.611 380.003 355.468 371.995 362.565 361.735C365.554 357.481 368.044 352.977 370.784 348.597C371.531 347.221 372.901 345.344 372.403 344.093C370.659 341.966 371.282 338.963 371.531 338.212C379.749 338.337 385.353 338.212 390.458 338.212C390.458 339.588 388.466 343.843 386.598 344.093C378.131 356.23 369.788 368.492 361.32 380.629C373.274 387.886 381.493 399.272 396.435 417.29C397.929 419.167 399.299 420.668 400.295 421.794C402.288 422.67 402.661 425.548 402.661 426.173H369.663C369.663 425.548 369.414 421.419 371.282 420.668C373.772 419.667 360.698 400.899 350.487 389.262C350.113 388.887 349.491 388.261 349.491 389.012V401.274C349.491 407.03 349.74 413.286 351.11 415.538C353.974 420.168 356.339 420.543 355.717 426.173H322.345Z"/>
<path d="M410.762 426.173C410.762 415.288 414.373 417.54 415.245 412.785C418.98 392.39 418.856 364.863 414.248 347.471C413.501 344.844 410.762 345.719 410.762 338.587H414.248C430.187 338.587 446.25 338.212 462.314 338.587C473.52 338.838 479.871 347.596 476.883 358.482C476.26 360.859 473.52 364.113 471.404 364.363C465.053 365.364 465.925 359.983 460.321 350.85C458.329 347.721 455.838 344.343 452.725 342.341C448.99 340.089 444.383 340.589 442.017 344.969C436.538 355.729 436.413 376.5 437.409 379.002C438.032 382.631 445.503 375.374 447.994 372.12C449.239 370.619 451.107 368.367 452.725 368.367C464.804 368.367 465.178 396.144 452.85 396.144C451.107 396.269 449.861 394.642 448.616 393.516C446.375 391.264 444.507 388.637 442.017 386.635C439.651 384.883 437.534 384.132 437.409 389.012C437.409 409.157 440.522 433.055 454.967 421.294C459.076 417.915 461.94 412.91 464.43 408.031C467.792 401.149 470.283 398.646 474.517 399.898C478.501 401.149 480.618 407.28 479.124 413.411C477.381 420.543 472.151 426.048 464.804 426.173C447.62 426.549 430.312 426.173 413.003 426.173H410.762Z"/>
<path d="M131.023 210.768C130.447 205.555 132.637 205.207 135.289 200.921C136.557 198.835 136.673 193.042 136.788 187.713C137.019 179.603 136.903 152.957 136.903 138.127C136.903 135.81 136.903 133.493 133.906 132.798C132.868 132.566 131.715 133.03 130.562 134.188C128.717 136.158 127.449 138.823 126.296 141.371C124.682 145.079 123.759 149.365 121.569 152.725C120.301 154.579 116.842 156.201 114.766 155.969C112.921 155.737 110.385 152.493 110.27 150.524C109.808 145.426 110.27 140.329 110.961 135.231C111.423 131.755 114.074 129.786 117.649 129.786C123.068 129.786 128.602 129.786 134.021 129.67H158.233C163.883 129.67 169.417 129.786 175.067 129.786C178.641 129.786 181.062 131.987 181.523 135.463C182.1 140.676 182.561 146.006 182.1 151.219C181.985 153.073 179.563 155.622 177.603 156.201C175.989 156.78 173.222 155.39 171.608 154C170.109 152.725 169.417 150.408 168.61 148.439C164.921 139.054 163.652 132.914 158.464 132.914C157.08 133.03 156.158 134.652 156.158 137.664V187.713C156.158 193.042 156.389 198.835 157.657 200.921C160.309 205.207 162.499 205.555 161.923 210.768H131.023Z"/>
<path d="M197.264 210.768C195.189 210.768 192.998 210.652 190.807 210.652H189.77C187.118 210.652 185.85 209.03 187.81 206.597C191.269 202.311 191.615 197.213 191.615 191.884C191.499 178.329 192.076 165.817 191.96 152.262V149.829C191.96 138.938 188.847 142.414 187.349 138.938C185.158 133.841 196.457 130.134 204.874 129.091C208.563 128.627 210.869 129.902 210.754 134.304C210.639 138.591 210.639 145.774 210.639 152.262V156.548C227.241 145.774 247.303 156.664 248.341 175.085L248.687 181.109L248.917 190.61V190.841C248.917 196.518 249.609 202.079 253.068 206.829C254.797 209.146 253.76 210.536 251.338 210.652C243.614 211 235.773 210.652 228.048 210.652C225.397 210.652 224.128 209.03 226.088 206.597C229.547 202.311 230.585 197.213 230.585 191.884C230.585 182.268 231.161 172.768 229.317 165.006C226.895 154.695 215.135 154.115 212.137 163.731C211.215 166.744 210.639 169.64 210.639 172.768V190.841C210.639 196.518 211.33 202.079 214.789 206.829C216.519 209.146 215.481 210.536 213.06 210.652C207.871 210.884 202.568 210.768 197.264 210.768Z"/>
<path d="M274.927 212.158C262.82 208.451 254.288 197.792 253.827 185.859C253.366 170.683 260.284 159.676 274.235 155.39C290.722 150.408 304.789 160.372 308.939 176.591C309.746 179.719 307.671 181.109 304.789 181.109C303.405 181.225 283.459 180.994 272.044 181.109C266.741 181.109 270.776 195.707 275.273 200.11C281.729 206.25 296.948 204.975 303.52 198.603C304.789 197.445 306.633 194.78 308.248 196.055C309.746 196.982 307.671 199.878 306.633 201.268C300.292 211 286.456 215.634 274.927 212.158ZM276.195 177.75L289.454 177.634C302.944 177.866 290.376 153.652 273.774 159.445C270.43 160.603 268.124 163.731 267.894 167.786C267.432 176.012 268.816 177.634 276.195 177.75Z"/>
<path d="M460.546 175.55C461.666 180.93 459.674 185.935 457.433 189.438C455.191 193.192 452.452 195.945 449.961 198.322C444.856 203.077 440.373 206.455 436.887 208.832C429.291 214.213 419.952 218.842 412.481 220.969C405.009 223.221 399.779 223.472 400.028 221.72C400.277 219.718 407.002 217.466 414.099 214.213C421.321 211.085 428.793 206.956 432.03 204.954C436.015 202.451 440 199.573 444.109 196.195C448.093 192.692 452.203 188.813 454.569 183.933C455.689 181.431 456.187 178.803 455.565 176.175C455.067 173.548 453.448 171.045 451.082 169.294C446.226 165.665 439.252 164.789 431.906 165.665C416.963 166.916 400.651 171.421 383.592 177.552C375 180.68 366.159 184.308 357.567 189.063C353.209 191.44 348.975 194.068 344.99 197.071C341.005 200.199 337.145 203.827 334.904 208.332C332.538 212.586 333.161 217.966 336.025 222.346C338.889 226.725 343.496 229.978 348.477 232.606C353.458 235.233 359.061 237.11 364.664 238.862C370.392 240.614 376.369 241.74 382.471 243.617C388.448 245.493 394.549 247.996 399.655 252.5C402.145 254.752 404.387 257.505 405.881 260.758C406.13 261.384 406.379 262.135 406.503 262.885C414.473 261.634 422.442 260.633 430.536 259.882C439.751 258.881 440 261.509 430.536 262.51C426.925 262.885 418.707 263.511 407.126 265.263C407.375 267.265 407.5 269.142 407.375 271.143C406.504 278.15 403.017 284.657 398.41 289.912C393.927 295.292 388.572 300.047 382.595 304.051C370.641 312.059 356.571 317.314 341.753 320.317C338.017 320.942 334.406 321.693 330.297 321.943C328.304 322.068 325.565 321.318 324.195 319.191C322.825 317.439 322.327 315.062 322.576 312.809C322.825 310.557 324.071 308.555 325.191 307.054C326.187 305.302 327.308 303.675 328.553 302.049C330.919 298.921 333.534 295.793 336.523 293.04C348.228 281.779 363.17 273.771 379.358 268.891C387.203 266.389 395.297 264.637 403.64 263.261C402.643 260.633 401.149 258.256 399.157 256.129C394.176 251.249 387.327 248.246 380.479 246.369C373.505 244.367 366.159 242.866 359.061 240.488C351.963 238.111 344.99 235.233 338.889 230.479C335.9 228.101 333.161 225.098 331.666 221.345C331.168 220.469 330.795 219.593 330.67 218.592C330.421 217.591 330.048 216.715 330.048 215.589C329.799 213.587 330.048 211.46 330.67 209.583C331.791 205.704 334.157 202.576 336.647 199.824C339.138 197.071 341.877 194.694 344.866 192.692C350.594 188.437 356.695 185.059 362.921 181.931C375.124 176.05 387.452 171.546 399.406 167.917C411.36 164.414 422.94 161.661 434.023 160.785C439.626 160.41 445.479 160.91 450.459 163.288C452.95 164.414 455.316 166.04 457.059 168.293C458.927 170.42 460.047 172.922 460.546 175.55ZM403.64 275.147C404.511 272.019 404.76 268.891 404.262 265.763C403.266 266.013 402.394 266.139 401.398 266.264C386.954 268.891 367.528 273.396 348.85 286.158C344.243 289.411 339.885 293.165 335.776 297.544C333.783 299.671 331.791 302.049 330.048 304.426C329.176 305.677 328.18 306.929 327.433 308.305L326.187 310.307C325.814 310.933 325.565 311.558 325.44 312.184C324.693 314.686 325.689 318.065 327.931 318.94C330.172 319.816 333.783 318.815 336.896 318.44C343.371 317.314 349.971 315.812 356.446 313.685C369.272 309.306 382.097 302.549 392.184 292.665C397.164 287.535 401.772 281.904 403.64 275.147Z"/>
</mask>
<path d="M30.3178 312.8C13.881 307.67 2.42507 292.405 1.05534 274.137C0.930822 272.01 1.05534 269.883 1.05534 267.63C0.308217 232.471 30.5668 213.452 62.0706 224.463C68.5457 226.715 73.2775 231.22 76.3905 237.726C81.7449 248.862 67.176 260.123 60.5763 250.489C57.7124 246.359 59.8292 242.481 56.9652 238.352C47.3771 224.213 35.5476 224.463 28.3254 228.967C14.5036 237.601 12.1377 268.756 33.9289 293.656C46.1319 307.544 62.6932 307.67 75.3943 294.156C76.8886 292.53 80.0016 289.527 81.4959 290.528C83.7372 292.029 80.6242 296.158 79.0055 298.035C68.2966 312.174 47.6262 318.18 30.3178 312.8Z" fill="white"/>
<path d="M85.5866 311.924C84.964 306.293 87.3299 305.918 90.1938 301.288C91.5636 299.036 91.6881 292.78 91.8126 287.024C92.0617 274.387 91.9371 261.624 91.8126 248.987C91.8126 242.981 91.9371 235.724 89.9448 233.722C87.2053 230.969 85.4621 229.968 85.4621 223.837H119.083C119.083 229.968 117.339 230.969 114.6 233.722C112.608 235.724 112.732 242.981 112.732 248.987V265.003C113.479 266.754 115.223 267.63 118.087 267.505H134.274C137.138 267.505 138.882 266.754 139.629 265.003V248.987C139.629 242.981 139.753 235.724 137.761 233.722C135.021 230.969 133.278 229.968 133.278 223.837H166.899C166.899 229.968 165.155 230.969 162.416 233.722C160.424 235.724 160.548 242.981 160.548 248.987C160.424 261.624 160.299 274.387 160.548 287.024C160.673 292.78 160.797 299.036 162.167 301.288C165.031 305.918 167.397 306.293 166.774 311.924H133.403C132.78 306.293 135.021 305.918 138.01 301.288C139.38 299.161 139.629 292.905 139.629 287.024V272.385C139.006 271.134 137.512 270.633 135.644 270.633H116.717C114.849 270.633 113.355 271.134 112.732 272.385V287.024C112.732 292.905 112.981 299.161 114.351 301.288C117.215 305.918 119.581 306.293 118.958 311.924H85.5866Z" fill="white"/>
<path d="M174.976 311.924C174.976 301.038 178.587 303.29 179.459 298.536C183.194 278.141 183.07 250.614 178.463 233.222C177.716 230.594 174.976 231.47 174.976 224.338H178.463C194.401 224.338 210.465 223.963 226.528 224.338C237.735 224.588 244.085 233.347 241.097 244.232C240.474 246.61 237.735 249.863 235.618 250.113C229.267 251.114 230.139 245.734 224.535 236.6C222.543 233.472 220.053 230.094 216.94 228.092C213.204 225.839 208.597 226.34 206.231 230.719C200.752 241.48 200.627 262.25 201.624 264.753C202.246 268.381 209.717 261.124 212.208 257.871C213.453 256.369 215.321 254.117 216.94 254.117C229.018 254.117 229.392 281.894 217.064 281.894C215.321 282.019 214.076 280.393 212.83 279.267C210.589 277.015 208.721 274.387 206.231 272.385C203.865 270.633 201.748 269.883 201.624 274.762C201.624 294.907 204.737 318.806 219.181 307.044C223.29 303.666 226.154 298.661 228.645 293.781C232.007 286.899 234.497 284.397 238.731 285.648C242.715 286.899 244.832 293.03 243.338 299.161C241.595 306.293 236.365 311.799 229.018 311.924C211.834 312.299 194.526 311.924 177.217 311.924H174.976Z" fill="white"/>
<path d="M249.411 311.924C249.411 301.038 253.022 303.29 253.894 298.536C257.63 278.141 257.505 250.614 252.898 233.222C252.151 230.594 249.411 231.47 249.411 224.338H252.898C268.837 224.338 284.9 223.963 300.963 224.338C312.17 224.588 318.52 233.347 315.532 244.232C314.909 246.61 312.17 249.863 310.053 250.113C303.702 251.114 304.574 245.734 298.971 236.6C296.978 233.472 294.488 230.094 291.375 228.092C287.639 225.839 283.032 226.34 280.666 230.719C275.187 241.48 275.063 262.25 276.059 264.753C276.681 268.381 284.153 261.124 286.643 257.871C287.888 256.369 289.756 254.117 291.375 254.117C303.453 254.117 303.827 281.894 291.499 281.894C289.756 282.019 288.511 280.393 287.266 279.267C285.024 277.015 283.157 274.387 280.666 272.385C278.3 270.633 276.183 269.883 276.059 274.762C276.059 294.907 279.172 318.806 293.616 307.044C297.725 303.666 300.589 298.661 303.08 293.781C306.442 286.899 308.932 284.397 313.166 285.648C317.151 286.899 319.268 293.03 317.773 299.161C316.03 306.293 310.8 311.799 303.453 311.924C286.27 312.299 268.961 311.924 251.653 311.924H249.411Z" fill="white"/>
<path d="M463.684 175.04C464.804 180.42 462.812 185.425 460.571 188.928C458.329 192.682 455.59 195.435 453.099 197.812C447.994 202.567 443.511 205.945 440.025 208.322C432.429 213.702 423.09 218.332 415.619 220.459C408.147 222.711 402.917 222.962 403.167 221.21C403.416 219.208 410.14 216.956 417.237 213.702C424.46 210.574 431.931 206.445 435.168 204.443C439.153 201.941 443.138 199.063 447.247 195.685C451.232 192.181 455.341 188.303 457.707 183.423C458.827 180.92 459.325 178.293 458.703 175.665C458.205 173.038 456.586 170.535 454.22 168.783C449.364 165.155 442.391 164.279 435.044 165.155C420.101 166.406 403.789 170.91 386.73 177.041C378.138 180.17 369.297 183.798 360.705 188.553C356.347 190.93 352.113 193.558 348.128 196.561C344.144 199.689 340.283 203.317 338.042 207.822C335.676 212.076 336.299 217.456 339.163 221.835C342.027 226.215 346.634 229.468 351.615 232.095C356.596 234.723 362.199 236.6 367.803 238.352C373.53 240.103 379.507 241.229 385.609 243.106C391.586 244.983 397.688 247.486 402.793 251.99C405.283 254.242 407.525 256.995 409.019 260.248C409.268 260.874 409.517 261.624 409.642 262.375C417.611 261.124 425.58 260.123 433.674 259.372C442.889 258.371 443.138 260.999 433.674 262C430.063 262.375 421.845 263.001 410.264 264.753C410.513 266.754 410.638 268.631 410.513 270.633C409.642 277.64 406.155 284.147 401.548 289.402C397.065 294.782 391.711 299.537 385.734 303.541C373.78 311.548 359.709 316.804 344.891 319.807C341.155 320.432 337.544 321.183 333.435 321.433C331.442 321.558 328.703 320.808 327.333 318.68C325.964 316.929 325.465 314.551 325.714 312.299C325.964 310.047 327.209 308.045 328.329 306.544C329.326 304.792 330.446 303.165 331.691 301.539C334.057 298.411 336.672 295.282 339.661 292.53C351.366 281.269 366.308 273.261 382.496 268.381C390.341 265.879 398.435 264.127 406.778 262.751C405.781 260.123 404.287 257.746 402.295 255.619C397.314 250.739 390.465 247.736 383.617 245.859C376.644 243.857 369.297 242.356 362.199 239.978C355.101 237.601 348.128 234.723 342.027 229.968C339.038 227.591 336.299 224.588 334.805 220.834C334.306 219.959 333.933 219.083 333.808 218.082C333.559 217.081 333.186 216.205 333.186 215.079C332.937 213.077 333.186 210.95 333.808 209.073C334.929 205.194 337.295 202.066 339.785 199.313C342.276 196.561 345.015 194.183 348.004 192.181C353.732 187.927 359.833 184.549 366.059 181.421C378.262 175.54 390.59 171.036 402.544 167.407C414.498 163.904 426.078 161.151 437.161 160.275C442.764 159.9 448.617 160.4 453.597 162.778C456.088 163.904 458.454 165.53 460.197 167.782C462.065 169.909 463.186 172.412 463.684 175.04ZM406.778 274.637C407.649 271.509 407.898 268.381 407.4 265.253C406.404 265.503 405.532 265.628 404.536 265.754C390.092 268.381 370.667 272.885 351.988 285.648C347.381 288.901 343.023 292.655 338.914 297.034C336.921 299.161 334.929 301.539 333.186 303.916C332.314 305.167 331.318 306.418 330.571 307.795L329.326 309.797C328.952 310.422 328.703 311.048 328.578 311.674C327.831 314.176 328.827 317.554 331.069 318.43C333.31 319.306 336.921 318.305 340.034 317.93C346.509 316.804 353.109 315.302 359.584 313.175C372.41 308.796 385.235 302.039 395.322 292.154C400.303 287.024 404.91 281.394 406.778 274.637Z" fill="white"/>
<path d="M416.158 311.924C416.158 301.038 419.769 303.29 420.64 298.536C424.376 278.141 424.251 250.614 419.644 233.222C418.897 230.594 416.158 231.47 416.158 224.338H419.644C435.583 224.338 451.646 223.963 467.709 224.338C478.916 224.588 485.267 233.347 482.278 244.232C481.656 246.61 478.916 249.863 476.799 250.113C470.449 251.114 471.32 245.734 465.717 236.6C463.725 233.472 461.234 230.094 458.121 228.092C454.385 225.839 449.778 226.34 447.412 230.719C441.933 241.48 441.809 262.25 442.805 264.753C443.428 268.381 450.899 261.124 453.389 257.871C454.635 256.369 456.502 254.117 458.121 254.117C470.2 254.117 470.573 281.894 458.246 281.894C456.502 282.019 455.257 280.393 454.012 279.267C451.771 277.015 449.903 274.387 447.412 272.385C445.046 270.633 442.93 269.883 442.805 274.762C442.805 294.907 445.918 318.806 460.362 307.044C464.472 303.666 467.336 298.661 469.826 293.781C473.188 286.899 475.679 284.397 479.912 285.648C483.897 286.899 486.014 293.03 484.52 299.161C482.776 306.293 477.546 311.799 470.2 311.924C453.016 312.299 435.707 311.924 418.399 311.924H416.158Z" fill="white"/>
<path d="M173.55 427.049C157.113 421.919 145.657 406.654 144.287 388.386C144.163 386.259 144.287 384.132 144.287 381.88C143.54 346.72 173.799 327.702 205.302 338.713C211.777 340.965 216.509 345.469 219.622 351.976C224.977 363.112 210.408 374.373 203.808 364.738C200.944 360.609 203.061 356.73 200.197 352.601C190.609 338.462 178.779 338.713 171.557 343.217C157.735 351.85 155.369 383.006 177.161 407.905C189.364 421.794 205.925 421.919 218.626 408.406C220.12 406.779 223.233 403.776 224.728 404.777C226.969 406.279 223.856 410.408 222.237 412.285C211.528 426.424 190.858 432.43 173.55 427.049Z" fill="white"/>
<path d="M224.924 426.173C224.924 421.544 227.913 421.419 229.158 419.792C243.727 401.524 250.451 373.872 257.922 352.977C260.164 346.595 254.809 345.219 257.798 339.964C258.918 337.587 274.857 337.837 276.849 339.088C278.966 340.214 279.962 343.342 280.834 345.719C286.562 361.11 291.916 376.75 297.644 392.14C300.757 400.273 303.621 408.531 308.353 416.414C310.096 419.792 314.579 420.418 314.081 426.173H283.823C278.593 421.043 285.441 419.792 285.068 416.789C284.57 412.535 282.702 408.656 281.208 404.652C280.585 403.026 277.846 401.399 275.978 401.274C267.51 400.899 258.918 401.024 250.451 401.149C248.832 401.149 246.84 401.524 245.968 403.276C245.595 404.277 239.618 413.286 241.112 419.917C241.361 421.419 244.1 424.797 242.108 426.173H224.924ZM248.957 394.768H277.721C262.529 352.101 264.148 353.352 262.156 357.982C257.798 369.993 253.564 382.005 248.957 394.768Z" fill="white"/>
<path d="M322.345 426.173C321.723 420.543 324.089 420.168 326.952 415.538C328.322 413.286 328.447 407.03 328.571 401.274C328.82 388.637 328.696 375.874 328.571 363.237C328.571 357.231 328.696 349.974 326.703 347.972C323.964 345.219 322.221 344.218 322.221 338.087H355.841C355.841 344.218 354.098 345.219 351.359 347.972C349.366 349.974 349.491 357.231 349.491 363.237V378.001C350.611 380.003 355.468 371.995 362.565 361.735C365.554 357.481 368.044 352.977 370.784 348.597C371.531 347.221 372.901 345.344 372.403 344.093C370.659 341.966 371.282 338.963 371.531 338.212C379.749 338.337 385.353 338.212 390.458 338.212C390.458 339.588 388.466 343.843 386.598 344.093C378.131 356.23 369.788 368.492 361.32 380.629C373.274 387.886 381.493 399.272 396.435 417.29C397.929 419.167 399.299 420.668 400.295 421.794C402.288 422.67 402.661 425.548 402.661 426.173H369.663C369.663 425.548 369.414 421.419 371.282 420.668C373.772 419.667 360.698 400.899 350.487 389.262C350.113 388.887 349.491 388.261 349.491 389.012V401.274C349.491 407.03 349.74 413.286 351.11 415.538C353.974 420.168 356.339 420.543 355.717 426.173H322.345Z" fill="white"/>
<path d="M410.762 426.173C410.762 415.288 414.373 417.54 415.245 412.785C418.98 392.39 418.856 364.863 414.248 347.471C413.501 344.844 410.762 345.719 410.762 338.587H414.248C430.187 338.587 446.25 338.212 462.314 338.587C473.52 338.838 479.871 347.596 476.883 358.482C476.26 360.859 473.52 364.113 471.404 364.363C465.053 365.364 465.925 359.983 460.321 350.85C458.329 347.721 455.838 344.343 452.725 342.341C448.99 340.089 444.383 340.589 442.017 344.969C436.538 355.729 436.413 376.5 437.409 379.002C438.032 382.631 445.503 375.374 447.994 372.12C449.239 370.619 451.107 368.367 452.725 368.367C464.804 368.367 465.178 396.144 452.85 396.144C451.107 396.269 449.861 394.642 448.616 393.516C446.375 391.264 444.507 388.637 442.017 386.635C439.651 384.883 437.534 384.132 437.409 389.012C437.409 409.157 440.522 433.055 454.967 421.294C459.076 417.915 461.94 412.91 464.43 408.031C467.792 401.149 470.283 398.646 474.517 399.898C478.501 401.149 480.618 407.28 479.124 413.411C477.381 420.543 472.151 426.048 464.804 426.173C447.62 426.549 430.312 426.173 413.003 426.173H410.762Z" fill="white"/>
<path d="M131.023 210.768C130.447 205.555 132.637 205.207 135.289 200.921C136.557 198.835 136.673 193.042 136.788 187.713C137.019 179.603 136.903 152.957 136.903 138.127C136.903 135.81 136.903 133.493 133.906 132.798C132.868 132.566 131.715 133.03 130.562 134.188C128.717 136.158 127.449 138.823 126.296 141.371C124.682 145.079 123.759 149.365 121.569 152.725C120.301 154.579 116.842 156.201 114.766 155.969C112.921 155.737 110.385 152.493 110.27 150.524C109.808 145.426 110.27 140.329 110.961 135.231C111.423 131.755 114.074 129.786 117.649 129.786C123.068 129.786 128.602 129.786 134.021 129.67H158.233C163.883 129.67 169.417 129.786 175.067 129.786C178.641 129.786 181.062 131.987 181.523 135.463C182.1 140.676 182.561 146.006 182.1 151.219C181.985 153.073 179.563 155.622 177.603 156.201C175.989 156.78 173.222 155.39 171.608 154C170.109 152.725 169.417 150.408 168.61 148.439C164.921 139.054 163.652 132.914 158.464 132.914C157.08 133.03 156.158 134.652 156.158 137.664V187.713C156.158 193.042 156.389 198.835 157.657 200.921C160.309 205.207 162.499 205.555 161.923 210.768H131.023Z" fill="white"/>
<path d="M197.264 210.768C195.189 210.768 192.998 210.652 190.807 210.652H189.77C187.118 210.652 185.85 209.03 187.81 206.597C191.269 202.311 191.615 197.213 191.615 191.884C191.499 178.329 192.076 165.817 191.96 152.262V149.829C191.96 138.938 188.847 142.414 187.349 138.938C185.158 133.841 196.457 130.134 204.874 129.091C208.563 128.627 210.869 129.902 210.754 134.304C210.639 138.591 210.639 145.774 210.639 152.262V156.548C227.241 145.774 247.303 156.664 248.341 175.085L248.687 181.109L248.917 190.61V190.841C248.917 196.518 249.609 202.079 253.068 206.829C254.797 209.146 253.76 210.536 251.338 210.652C243.614 211 235.773 210.652 228.048 210.652C225.397 210.652 224.128 209.03 226.088 206.597C229.547 202.311 230.585 197.213 230.585 191.884C230.585 182.268 231.161 172.768 229.317 165.006C226.895 154.695 215.135 154.115 212.137 163.731C211.215 166.744 210.639 169.64 210.639 172.768V190.841C210.639 196.518 211.33 202.079 214.789 206.829C216.519 209.146 215.481 210.536 213.06 210.652C207.871 210.884 202.568 210.768 197.264 210.768Z" fill="white"/>
<path d="M274.927 212.158C262.82 208.451 254.288 197.792 253.827 185.859C253.366 170.683 260.284 159.676 274.235 155.39C290.722 150.408 304.789 160.372 308.939 176.591C309.746 179.719 307.671 181.109 304.789 181.109C303.405 181.225 283.459 180.994 272.044 181.109C266.741 181.109 270.776 195.707 275.273 200.11C281.729 206.25 296.948 204.975 303.52 198.603C304.789 197.445 306.633 194.78 308.248 196.055C309.746 196.982 307.671 199.878 306.633 201.268C300.292 211 286.456 215.634 274.927 212.158ZM276.195 177.75L289.454 177.634C302.944 177.866 290.376 153.652 273.774 159.445C270.43 160.603 268.124 163.731 267.894 167.786C267.432 176.012 268.816 177.634 276.195 177.75Z" fill="white"/>
<path d="M460.546 175.55C461.666 180.93 459.674 185.935 457.433 189.438C455.191 193.192 452.452 195.945 449.961 198.322C444.856 203.077 440.373 206.455 436.887 208.832C429.291 214.213 419.952 218.842 412.481 220.969C405.009 223.221 399.779 223.472 400.028 221.72C400.277 219.718 407.002 217.466 414.099 214.213C421.321 211.085 428.793 206.956 432.03 204.954C436.015 202.451 440 199.573 444.109 196.195C448.093 192.692 452.203 188.813 454.569 183.933C455.689 181.431 456.187 178.803 455.565 176.175C455.067 173.548 453.448 171.045 451.082 169.294C446.226 165.665 439.252 164.789 431.906 165.665C416.963 166.916 400.651 171.421 383.592 177.552C375 180.68 366.159 184.308 357.567 189.063C353.209 191.44 348.975 194.068 344.99 197.071C341.005 200.199 337.145 203.827 334.904 208.332C332.538 212.586 333.161 217.966 336.025 222.346C338.889 226.725 343.496 229.978 348.477 232.606C353.458 235.233 359.061 237.11 364.664 238.862C370.392 240.614 376.369 241.74 382.471 243.617C388.448 245.493 394.549 247.996 399.655 252.5C402.145 254.752 404.387 257.505 405.881 260.758C406.13 261.384 406.379 262.135 406.503 262.885C414.473 261.634 422.442 260.633 430.536 259.882C439.751 258.881 440 261.509 430.536 262.51C426.925 262.885 418.707 263.511 407.126 265.263C407.375 267.265 407.5 269.142 407.375 271.143C406.504 278.15 403.017 284.657 398.41 289.912C393.927 295.292 388.572 300.047 382.595 304.051C370.641 312.059 356.571 317.314 341.753 320.317C338.017 320.942 334.406 321.693 330.297 321.943C328.304 322.068 325.565 321.318 324.195 319.191C322.825 317.439 322.327 315.062 322.576 312.809C322.825 310.557 324.071 308.555 325.191 307.054C326.187 305.302 327.308 303.675 328.553 302.049C330.919 298.921 333.534 295.793 336.523 293.04C348.228 281.779 363.17 273.771 379.358 268.891C387.203 266.389 395.297 264.637 403.64 263.261C402.643 260.633 401.149 258.256 399.157 256.129C394.176 251.249 387.327 248.246 380.479 246.369C373.505 244.367 366.159 242.866 359.061 240.488C351.963 238.111 344.99 235.233 338.889 230.479C335.9 228.101 333.161 225.098 331.666 221.345C331.168 220.469 330.795 219.593 330.67 218.592C330.421 217.591 330.048 216.715 330.048 215.589C329.799 213.587 330.048 211.46 330.67 209.583C331.791 205.704 334.157 202.576 336.647 199.824C339.138 197.071 341.877 194.694 344.866 192.692C350.594 188.437 356.695 185.059 362.921 181.931C375.124 176.05 387.452 171.546 399.406 167.917C411.36 164.414 422.94 161.661 434.023 160.785C439.626 160.41 445.479 160.91 450.459 163.288C452.95 164.414 455.316 166.04 457.059 168.293C458.927 170.42 460.047 172.922 460.546 175.55ZM403.64 275.147C404.511 272.019 404.76 268.891 404.262 265.763C403.266 266.013 402.394 266.139 401.398 266.264C386.954 268.891 367.528 273.396 348.85 286.158C344.243 289.411 339.885 293.165 335.776 297.544C333.783 299.671 331.791 302.049 330.048 304.426C329.176 305.677 328.18 306.929 327.433 308.305L326.187 310.307C325.814 310.933 325.565 311.558 325.44 312.184C324.693 314.686 325.689 318.065 327.931 318.94C330.172 319.816 333.783 318.815 336.896 318.44C343.371 317.314 349.971 315.812 356.446 313.685C369.272 309.306 382.097 302.549 392.184 292.665C397.164 287.535 401.772 281.904 403.64 275.147Z" fill="white"/>
<path d="M30.3178 312.8C13.881 307.67 2.42507 292.405 1.05534 274.137C0.930822 272.01 1.05534 269.883 1.05534 267.63C0.308217 232.471 30.5668 213.452 62.0706 224.463C68.5457 226.715 73.2775 231.22 76.3905 237.726C81.7449 248.862 67.176 260.123 60.5763 250.489C57.7124 246.359 59.8292 242.481 56.9652 238.352C47.3771 224.213 35.5476 224.463 28.3254 228.967C14.5036 237.601 12.1377 268.756 33.9289 293.656C46.1319 307.544 62.6932 307.67 75.3943 294.156C76.8886 292.53 80.0016 289.527 81.4959 290.528C83.7372 292.029 80.6242 296.158 79.0055 298.035C68.2966 312.174 47.6262 318.18 30.3178 312.8Z" stroke="#161616" mask="url(#path-16-outside-1_353_33)"/>
<path d="M85.5866 311.924C84.964 306.293 87.3299 305.918 90.1938 301.288C91.5636 299.036 91.6881 292.78 91.8126 287.024C92.0617 274.387 91.9371 261.624 91.8126 248.987C91.8126 242.981 91.9371 235.724 89.9448 233.722C87.2053 230.969 85.4621 229.968 85.4621 223.837H119.083C119.083 229.968 117.339 230.969 114.6 233.722C112.608 235.724 112.732 242.981 112.732 248.987V265.003C113.479 266.754 115.223 267.63 118.087 267.505H134.274C137.138 267.505 138.882 266.754 139.629 265.003V248.987C139.629 242.981 139.753 235.724 137.761 233.722C135.021 230.969 133.278 229.968 133.278 223.837H166.899C166.899 229.968 165.155 230.969 162.416 233.722C160.424 235.724 160.548 242.981 160.548 248.987C160.424 261.624 160.299 274.387 160.548 287.024C160.673 292.78 160.797 299.036 162.167 301.288C165.031 305.918 167.397 306.293 166.774 311.924H133.403C132.78 306.293 135.021 305.918 138.01 301.288C139.38 299.161 139.629 292.905 139.629 287.024V272.385C139.006 271.134 137.512 270.633 135.644 270.633H116.717C114.849 270.633 113.355 271.134 112.732 272.385V287.024C112.732 292.905 112.981 299.161 114.351 301.288C117.215 305.918 119.581 306.293 118.958 311.924H85.5866Z" stroke="#161616" mask="url(#path-16-outside-1_353_33)"/>
<path d="M174.976 311.924C174.976 301.038 178.587 303.29 179.459 298.536C183.194 278.141 183.07 250.614 178.463 233.222C177.716 230.594 174.976 231.47 174.976 224.338H178.463C194.401 224.338 210.465 223.963 226.528 224.338C237.735 224.588 244.085 233.347 241.097 244.232C240.474 246.61 237.735 249.863 235.618 250.113C229.267 251.114 230.139 245.734 224.535 236.6C222.543 233.472 220.053 230.094 216.94 228.092C213.204 225.839 208.597 226.34 206.231 230.719C200.752 241.48 200.627 262.25 201.624 264.753C202.246 268.381 209.717 261.124 212.208 257.871C213.453 256.369 215.321 254.117 216.94 254.117C229.018 254.117 229.392 281.894 217.064 281.894C215.321 282.019 214.076 280.393 212.83 279.267C210.589 277.015 208.721 274.387 206.231 272.385C203.865 270.633 201.748 269.883 201.624 274.762C201.624 294.907 204.737 318.806 219.181 307.044C223.29 303.666 226.154 298.661 228.645 293.781C232.007 286.899 234.497 284.397 238.731 285.648C242.715 286.899 244.832 293.03 243.338 299.161C241.595 306.293 236.365 311.799 229.018 311.924C211.834 312.299 194.526 311.924 177.217 311.924H174.976Z" stroke="#161616" mask="url(#path-16-outside-1_353_33)"/>
<path d="M249.411 311.924C249.411 301.038 253.022 303.29 253.894 298.536C257.63 278.141 257.505 250.614 252.898 233.222C252.151 230.594 249.411 231.47 249.411 224.338H252.898C268.837 224.338 284.9 223.963 300.963 224.338C312.17 224.588 318.52 233.347 315.532 244.232C314.909 246.61 312.17 249.863 310.053 250.113C303.702 251.114 304.574 245.734 298.971 236.6C296.978 233.472 294.488 230.094 291.375 228.092C287.639 225.839 283.032 226.34 280.666 230.719C275.187 241.48 275.063 262.25 276.059 264.753C276.681 268.381 284.153 261.124 286.643 257.871C287.888 256.369 289.756 254.117 291.375 254.117C303.453 254.117 303.827 281.894 291.499 281.894C289.756 282.019 288.511 280.393 287.266 279.267C285.024 277.015 283.157 274.387 280.666 272.385C278.3 270.633 276.183 269.883 276.059 274.762C276.059 294.907 279.172 318.806 293.616 307.044C297.725 303.666 300.589 298.661 303.08 293.781C306.442 286.899 308.932 284.397 313.166 285.648C317.151 286.899 319.268 293.03 317.773 299.161C316.03 306.293 310.8 311.799 303.453 311.924C286.27 312.299 268.961 311.924 251.653 311.924H249.411Z" stroke="#161616" mask="url(#path-16-outside-1_353_33)"/>
<path d="M463.684 175.04C464.804 180.42 462.812 185.425 460.571 188.928C458.329 192.682 455.59 195.435 453.099 197.812C447.994 202.567 443.511 205.945 440.025 208.322C432.429 213.702 423.09 218.332 415.619 220.459C408.147 222.711 402.917 222.962 403.167 221.21C403.416 219.208 410.14 216.956 417.237 213.702C424.46 210.574 431.931 206.445 435.168 204.443C439.153 201.941 443.138 199.063 447.247 195.685C451.232 192.181 455.341 188.303 457.707 183.423C458.827 180.92 459.325 178.293 458.703 175.665C458.205 173.038 456.586 170.535 454.22 168.783C449.364 165.155 442.391 164.279 435.044 165.155C420.101 166.406 403.789 170.91 386.73 177.041C378.138 180.17 369.297 183.798 360.705 188.553C356.347 190.93 352.113 193.558 348.128 196.561C344.144 199.689 340.283 203.317 338.042 207.822C335.676 212.076 336.299 217.456 339.163 221.835C342.027 226.215 346.634 229.468 351.615 232.095C356.596 234.723 362.199 236.6 367.803 238.352C373.53 240.103 379.507 241.229 385.609 243.106C391.586 244.983 397.688 247.486 402.793 251.99C405.283 254.242 407.525 256.995 409.019 260.248C409.268 260.874 409.517 261.624 409.642 262.375C417.611 261.124 425.58 260.123 433.674 259.372C442.889 258.371 443.138 260.999 433.674 262C430.063 262.375 421.845 263.001 410.264 264.753C410.513 266.754 410.638 268.631 410.513 270.633C409.642 277.64 406.155 284.147 401.548 289.402C397.065 294.782 391.711 299.537 385.734 303.541C373.78 311.548 359.709 316.804 344.891 319.807C341.155 320.432 337.544 321.183 333.435 321.433C331.442 321.558 328.703 320.808 327.333 318.68C325.964 316.929 325.465 314.551 325.714 312.299C325.964 310.047 327.209 308.045 328.329 306.544C329.326 304.792 330.446 303.165 331.691 301.539C334.057 298.411 336.672 295.282 339.661 292.53C351.366 281.269 366.308 273.261 382.496 268.381C390.341 265.879 398.435 264.127 406.778 262.751C405.781 260.123 404.287 257.746 402.295 255.619C397.314 250.739 390.465 247.736 383.617 245.859C376.644 243.857 369.297 242.356 362.199 239.978C355.101 237.601 348.128 234.723 342.027 229.968C339.038 227.591 336.299 224.588 334.805 220.834C334.306 219.959 333.933 219.083 333.808 218.082C333.559 217.081 333.186 216.205 333.186 215.079C332.937 213.077 333.186 210.95 333.808 209.073C334.929 205.194 337.295 202.066 339.785 199.313C342.276 196.561 345.015 194.183 348.004 192.181C353.732 187.927 359.833 184.549 366.059 181.421C378.262 175.54 390.59 171.036 402.544 167.407C414.498 163.904 426.078 161.151 437.161 160.275C442.764 159.9 448.617 160.4 453.597 162.778C456.088 163.904 458.454 165.53 460.197 167.782C462.065 169.909 463.186 172.412 463.684 175.04ZM406.778 274.637C407.649 271.509 407.898 268.381 407.4 265.253C406.404 265.503 405.532 265.628 404.536 265.754C390.092 268.381 370.667 272.885 351.988 285.648C347.381 288.901 343.023 292.655 338.914 297.034C336.921 299.161 334.929 301.539 333.186 303.916C332.314 305.167 331.318 306.418 330.571 307.795L329.326 309.797C328.952 310.422 328.703 311.048 328.578 311.674C327.831 314.176 328.827 317.554 331.069 318.43C333.31 319.306 336.921 318.305 340.034 317.93C346.509 316.804 353.109 315.302 359.584 313.175C372.41 308.796 385.235 302.039 395.322 292.154C400.303 287.024 404.91 281.394 406.778 274.637Z" stroke="#161616" mask="url(#path-16-outside-1_353_33)"/>
<path d="M416.158 311.924C416.158 301.038 419.769 303.29 420.64 298.536C424.376 278.141 424.251 250.614 419.644 233.222C418.897 230.594 416.158 231.47 416.158 224.338H419.644C435.583 224.338 451.646 223.963 467.709 224.338C478.916 224.588 485.267 233.347 482.278 244.232C481.656 246.61 478.916 249.863 476.799 250.113C470.449 251.114 471.32 245.734 465.717 236.6C463.725 233.472 461.234 230.094 458.121 228.092C454.385 225.839 449.778 226.34 447.412 230.719C441.933 241.48 441.809 262.25 442.805 264.753C443.428 268.381 450.899 261.124 453.389 257.871C454.635 256.369 456.502 254.117 458.121 254.117C470.2 254.117 470.573 281.894 458.246 281.894C456.502 282.019 455.257 280.393 454.012 279.267C451.771 277.015 449.903 274.387 447.412 272.385C445.046 270.633 442.93 269.883 442.805 274.762C442.805 294.907 445.918 318.806 460.362 307.044C464.472 303.666 467.336 298.661 469.826 293.781C473.188 286.899 475.679 284.397 479.912 285.648C483.897 286.899 486.014 293.03 484.52 299.161C482.776 306.293 477.546 311.799 470.2 311.924C453.016 312.299 435.707 311.924 418.399 311.924H416.158Z" stroke="#161616" mask="url(#path-16-outside-1_353_33)"/>
<path d="M173.55 427.049C157.113 421.919 145.657 406.654 144.287 388.386C144.163 386.259 144.287 384.132 144.287 381.88C143.54 346.72 173.799 327.702 205.302 338.713C211.777 340.965 216.509 345.469 219.622 351.976C224.977 363.112 210.408 374.373 203.808 364.738C200.944 360.609 203.061 356.73 200.197 352.601C190.609 338.462 178.779 338.713 171.557 343.217C157.735 351.85 155.369 383.006 177.161 407.905C189.364 421.794 205.925 421.919 218.626 408.406C220.12 406.779 223.233 403.776 224.728 404.777C226.969 406.279 223.856 410.408 222.237 412.285C211.528 426.424 190.858 432.43 173.55 427.049Z" stroke="#161616" mask="url(#path-16-outside-1_353_33)"/>
<path d="M224.924 426.173C224.924 421.544 227.913 421.419 229.158 419.792C243.727 401.524 250.451 373.872 257.922 352.977C260.164 346.595 254.809 345.219 257.798 339.964C258.918 337.587 274.857 337.837 276.849 339.088C278.966 340.214 279.962 343.342 280.834 345.719C286.562 361.11 291.916 376.75 297.644 392.14C300.757 400.273 303.621 408.531 308.353 416.414C310.096 419.792 314.579 420.418 314.081 426.173H283.823C278.593 421.043 285.441 419.792 285.068 416.789C284.57 412.535 282.702 408.656 281.208 404.652C280.585 403.026 277.846 401.399 275.978 401.274C267.51 400.899 258.918 401.024 250.451 401.149C248.832 401.149 246.84 401.524 245.968 403.276C245.595 404.277 239.618 413.286 241.112 419.917C241.361 421.419 244.1 424.797 242.108 426.173H224.924ZM248.957 394.768H277.721C262.529 352.101 264.148 353.352 262.156 357.982C257.798 369.993 253.564 382.005 248.957 394.768Z" stroke="#161616" mask="url(#path-16-outside-1_353_33)"/>
<path d="M322.345 426.173C321.723 420.543 324.089 420.168 326.952 415.538C328.322 413.286 328.447 407.03 328.571 401.274C328.82 388.637 328.696 375.874 328.571 363.237C328.571 357.231 328.696 349.974 326.703 347.972C323.964 345.219 322.221 344.218 322.221 338.087H355.841C355.841 344.218 354.098 345.219 351.359 347.972C349.366 349.974 349.491 357.231 349.491 363.237V378.001C350.611 380.003 355.468 371.995 362.565 361.735C365.554 357.481 368.044 352.977 370.784 348.597C371.531 347.221 372.901 345.344 372.403 344.093C370.659 341.966 371.282 338.963 371.531 338.212C379.749 338.337 385.353 338.212 390.458 338.212C390.458 339.588 388.466 343.843 386.598 344.093C378.131 356.23 369.788 368.492 361.32 380.629C373.274 387.886 381.493 399.272 396.435 417.29C397.929 419.167 399.299 420.668 400.295 421.794C402.288 422.67 402.661 425.548 402.661 426.173H369.663C369.663 425.548 369.414 421.419 371.282 420.668C373.772 419.667 360.698 400.899 350.487 389.262C350.113 388.887 349.491 388.261 349.491 389.012V401.274C349.491 407.03 349.74 413.286 351.11 415.538C353.974 420.168 356.339 420.543 355.717 426.173H322.345Z" stroke="#161616" mask="url(#path-16-outside-1_353_33)"/>
<path d="M410.762 426.173C410.762 415.288 414.373 417.54 415.245 412.785C418.98 392.39 418.856 364.863 414.248 347.471C413.501 344.844 410.762 345.719 410.762 338.587H414.248C430.187 338.587 446.25 338.212 462.314 338.587C473.52 338.838 479.871 347.596 476.883 358.482C476.26 360.859 473.52 364.113 471.404 364.363C465.053 365.364 465.925 359.983 460.321 350.85C458.329 347.721 455.838 344.343 452.725 342.341C448.99 340.089 444.383 340.589 442.017 344.969C436.538 355.729 436.413 376.5 437.409 379.002C438.032 382.631 445.503 375.374 447.994 372.12C449.239 370.619 451.107 368.367 452.725 368.367C464.804 368.367 465.178 396.144 452.85 396.144C451.107 396.269 449.861 394.642 448.616 393.516C446.375 391.264 444.507 388.637 442.017 386.635C439.651 384.883 437.534 384.132 437.409 389.012C437.409 409.157 440.522 433.055 454.967 421.294C459.076 417.915 461.94 412.91 464.43 408.031C467.792 401.149 470.283 398.646 474.517 399.898C478.501 401.149 480.618 407.28 479.124 413.411C477.381 420.543 472.151 426.048 464.804 426.173C447.62 426.549 430.312 426.173 413.003 426.173H410.762Z" stroke="#161616" mask="url(#path-16-outside-1_353_33)"/>
<path d="M131.023 210.768C130.447 205.555 132.637 205.207 135.289 200.921C136.557 198.835 136.673 193.042 136.788 187.713C137.019 179.603 136.903 152.957 136.903 138.127C136.903 135.81 136.903 133.493 133.906 132.798C132.868 132.566 131.715 133.03 130.562 134.188C128.717 136.158 127.449 138.823 126.296 141.371C124.682 145.079 123.759 149.365 121.569 152.725C120.301 154.579 116.842 156.201 114.766 155.969C112.921 155.737 110.385 152.493 110.27 150.524C109.808 145.426 110.27 140.329 110.961 135.231C111.423 131.755 114.074 129.786 117.649 129.786C123.068 129.786 128.602 129.786 134.021 129.67H158.233C163.883 129.67 169.417 129.786 175.067 129.786C178.641 129.786 181.062 131.987 181.523 135.463C182.1 140.676 182.561 146.006 182.1 151.219C181.985 153.073 179.563 155.622 177.603 156.201C175.989 156.78 173.222 155.39 171.608 154C170.109 152.725 169.417 150.408 168.61 148.439C164.921 139.054 163.652 132.914 158.464 132.914C157.08 133.03 156.158 134.652 156.158 137.664V187.713C156.158 193.042 156.389 198.835 157.657 200.921C160.309 205.207 162.499 205.555 161.923 210.768H131.023Z" stroke="#161616" mask="url(#path-16-outside-1_353_33)"/>
<path d="M197.264 210.768C195.189 210.768 192.998 210.652 190.807 210.652H189.77C187.118 210.652 185.85 209.03 187.81 206.597C191.269 202.311 191.615 197.213 191.615 191.884C191.499 178.329 192.076 165.817 191.96 152.262V149.829C191.96 138.938 188.847 142.414 187.349 138.938C185.158 133.841 196.457 130.134 204.874 129.091C208.563 128.627 210.869 129.902 210.754 134.304C210.639 138.591 210.639 145.774 210.639 152.262V156.548C227.241 145.774 247.303 156.664 248.341 175.085L248.687 181.109L248.917 190.61V190.841C248.917 196.518 249.609 202.079 253.068 206.829C254.797 209.146 253.76 210.536 251.338 210.652C243.614 211 235.773 210.652 228.048 210.652C225.397 210.652 224.128 209.03 226.088 206.597C229.547 202.311 230.585 197.213 230.585 191.884C230.585 182.268 231.161 172.768 229.317 165.006C226.895 154.695 215.135 154.115 212.137 163.731C211.215 166.744 210.639 169.64 210.639 172.768V190.841C210.639 196.518 211.33 202.079 214.789 206.829C216.519 209.146 215.481 210.536 213.06 210.652C207.871 210.884 202.568 210.768 197.264 210.768Z" stroke="#161616" mask="url(#path-16-outside-1_353_33)"/>
<path d="M274.927 212.158C262.82 208.451 254.288 197.792 253.827 185.859C253.366 170.683 260.284 159.676 274.235 155.39C290.722 150.408 304.789 160.372 308.939 176.591C309.746 179.719 307.671 181.109 304.789 181.109C303.405 181.225 283.459 180.994 272.044 181.109C266.741 181.109 270.776 195.707 275.273 200.11C281.729 206.25 296.948 204.975 303.52 198.603C304.789 197.445 306.633 194.78 308.248 196.055C309.746 196.982 307.671 199.878 306.633 201.268C300.292 211 286.456 215.634 274.927 212.158ZM276.195 177.75L289.454 177.634C302.944 177.866 290.376 153.652 273.774 159.445C270.43 160.603 268.124 163.731 267.894 167.786C267.432 176.012 268.816 177.634 276.195 177.75Z" stroke="#161616" mask="url(#path-16-outside-1_353_33)"/>
<path d="M460.546 175.55C461.666 180.93 459.674 185.935 457.433 189.438C455.191 193.192 452.452 195.945 449.961 198.322C444.856 203.077 440.373 206.455 436.887 208.832C429.291 214.213 419.952 218.842 412.481 220.969C405.009 223.221 399.779 223.472 400.028 221.72C400.277 219.718 407.002 217.466 414.099 214.213C421.321 211.085 428.793 206.956 432.03 204.954C436.015 202.451 440 199.573 444.109 196.195C448.093 192.692 452.203 188.813 454.569 183.933C455.689 181.431 456.187 178.803 455.565 176.175C455.067 173.548 453.448 171.045 451.082 169.294C446.226 165.665 439.252 164.789 431.906 165.665C416.963 166.916 400.651 171.421 383.592 177.552C375 180.68 366.159 184.308 357.567 189.063C353.209 191.44 348.975 194.068 344.99 197.071C341.005 200.199 337.145 203.827 334.904 208.332C332.538 212.586 333.161 217.966 336.025 222.346C338.889 226.725 343.496 229.978 348.477 232.606C353.458 235.233 359.061 237.11 364.664 238.862C370.392 240.614 376.369 241.74 382.471 243.617C388.448 245.493 394.549 247.996 399.655 252.5C402.145 254.752 404.387 257.505 405.881 260.758C406.13 261.384 406.379 262.135 406.503 262.885C414.473 261.634 422.442 260.633 430.536 259.882C439.751 258.881 440 261.509 430.536 262.51C426.925 262.885 418.707 263.511 407.126 265.263C407.375 267.265 407.5 269.142 407.375 271.143C406.504 278.15 403.017 284.657 398.41 289.912C393.927 295.292 388.572 300.047 382.595 304.051C370.641 312.059 356.571 317.314 341.753 320.317C338.017 320.942 334.406 321.693 330.297 321.943C328.304 322.068 325.565 321.318 324.195 319.191C322.825 317.439 322.327 315.062 322.576 312.809C322.825 310.557 324.071 308.555 325.191 307.054C326.187 305.302 327.308 303.675 328.553 302.049C330.919 298.921 333.534 295.793 336.523 293.04C348.228 281.779 363.17 273.771 379.358 268.891C387.203 266.389 395.297 264.637 403.64 263.261C402.643 260.633 401.149 258.256 399.157 256.129C394.176 251.249 387.327 248.246 380.479 246.369C373.505 244.367 366.159 242.866 359.061 240.488C351.963 238.111 344.99 235.233 338.889 230.479C335.9 228.101 333.161 225.098 331.666 221.345C331.168 220.469 330.795 219.593 330.67 218.592C330.421 217.591 330.048 216.715 330.048 215.589C329.799 213.587 330.048 211.46 330.67 209.583C331.791 205.704 334.157 202.576 336.647 199.824C339.138 197.071 341.877 194.694 344.866 192.692C350.594 188.437 356.695 185.059 362.921 181.931C375.124 176.05 387.452 171.546 399.406 167.917C411.36 164.414 422.94 161.661 434.023 160.785C439.626 160.41 445.479 160.91 450.459 163.288C452.95 164.414 455.316 166.04 457.059 168.293C458.927 170.42 460.047 172.922 460.546 175.55ZM403.64 275.147C404.511 272.019 404.76 268.891 404.262 265.763C403.266 266.013 402.394 266.139 401.398 266.264C386.954 268.891 367.528 273.396 348.85 286.158C344.243 289.411 339.885 293.165 335.776 297.544C333.783 299.671 331.791 302.049 330.048 304.426C329.176 305.677 328.18 306.929 327.433 308.305L326.187 310.307C325.814 310.933 325.565 311.558 325.44 312.184C324.693 314.686 325.689 318.065 327.931 318.94C330.172 319.816 333.783 318.815 336.896 318.44C343.371 317.314 349.971 315.812 356.446 313.685C369.272 309.306 382.097 302.549 392.184 292.665C397.164 287.535 401.772 281.904 403.64 275.147Z" stroke="#161616" mask="url(#path-16-outside-1_353_33)"/>
</svg>
