<svg width="139" height="32" viewBox="0 0 139 32" fill="none" xmlns="http://www.w3.org/2000/svg">
<mask id="mask0_6378_3422" style="mask-type:alpha" maskUnits="userSpaceOnUse" x="0" y="0" width="139" height="32">
<rect width="138.139" height="32" fill="#1E1E1E"/>
</mask>
<g mask="url(#mask0_6378_3422)">
<path fill-rule="evenodd" clip-rule="evenodd" d="M30.0445 8.5908C29.9218 8.35118 29.7925 8.11338 29.6563 7.87763C25.2818 0.300718 15.5932 -2.29532 8.01633 2.07921C0.439421 6.45374 -2.15662 16.1423 2.21791 23.7192C6.59244 31.2961 16.281 33.8922 23.8579 29.5176C29.3881 26.3248 32.2649 20.3011 31.7147 14.3337L26.9948 17.0587C26.6065 20.4413 24.6765 23.6028 21.5014 25.436C16.1787 28.509 9.37261 26.6854 6.29955 21.3627C3.2265 16.04 5.05019 9.2339 10.3729 6.16085C15.6956 3.0878 22.5016 4.91148 25.5747 10.2342C25.7112 10.4706 25.838 10.7099 25.9553 10.9517L30.0445 8.5908Z" fill="url(#paint0_linear_6378_3422)"/>
<path d="M22.3608 12.9469C21.4365 11.3459 19.914 10.1777 18.1284 9.69925C16.3427 9.22079 14.4402 9.47127 12.8392 10.3956C11.2382 11.3199 10.07 12.8423 9.59155 14.628C9.11308 16.4136 9.36356 18.3162 10.2879 19.9172L16.3243 16.432L22.3608 12.9469Z" fill="url(#paint1_linear_6378_3422)"/>
<path d="M128.168 27V11.4728H130.519V12.623C131.299 11.7994 132.304 11.3699 133.534 11.3344C134.966 11.3699 136.013 11.8527 136.673 12.7828C136.995 13.1306 137.216 13.5886 137.336 14.1566C137.449 14.7174 137.505 15.6688 137.505 17.0107C137.505 18.317 137.449 19.2542 137.336 19.8222C137.216 20.3901 136.995 20.8552 136.673 21.2173C136.35 21.6432 135.926 21.984 135.401 22.2396C134.884 22.5023 134.262 22.6408 133.534 22.655C132.934 22.655 132.398 22.5307 131.925 22.2822C131.415 22.055 130.947 21.7426 130.519 21.345V27H128.168ZM132.825 20.4292C133.38 20.4292 133.819 20.3298 134.142 20.131C134.464 19.9251 134.693 19.6624 134.828 19.3429C134.978 19.0092 135.079 18.64 135.131 18.2354C135.146 17.8378 135.154 17.4295 135.154 17.0107C135.154 16.5705 135.146 16.1409 135.131 15.722C135.079 15.3032 134.978 14.934 134.828 14.6145C134.693 14.2808 134.464 14.0181 134.142 13.8264C133.819 13.6489 133.38 13.5602 132.825 13.5602C132.3 13.5602 131.884 13.6631 131.577 13.869C131.254 14.0749 131.018 14.3447 130.868 14.6784C130.725 15.0121 130.632 15.3742 130.587 15.7646C130.542 16.1764 130.519 16.5918 130.519 17.0107C130.519 17.4011 130.542 17.7916 130.587 18.1821C130.632 18.5939 130.725 18.9666 130.868 19.3003C131.018 19.634 131.254 19.9038 131.577 20.1097C131.884 20.3227 132.3 20.4292 132.825 20.4292Z" fill="white"/>
<path d="M115.738 27V11.4728H118.089V12.623C118.869 11.7994 119.874 11.3699 121.104 11.3344C122.536 11.3699 123.582 11.8527 124.242 12.7827C124.565 13.1306 124.786 13.5886 124.906 14.1565C125.019 14.7174 125.075 15.6688 125.075 17.0106C125.075 18.317 125.019 19.2542 124.906 19.8221C124.786 20.3901 124.565 20.8552 124.242 21.2173C123.92 21.6432 123.496 21.984 122.971 22.2396C122.454 22.5023 121.831 22.6408 121.104 22.6549C120.504 22.6549 119.968 22.5307 119.495 22.2822C118.985 22.055 118.516 21.7426 118.089 21.345V27H115.738ZM120.395 20.4292C120.95 20.4292 121.389 20.3298 121.711 20.131C122.034 19.9251 122.263 19.6624 122.398 19.3429C122.548 19.0092 122.649 18.64 122.701 18.2354C122.716 17.8378 122.724 17.4295 122.724 17.0106C122.724 16.5705 122.716 16.1409 122.701 15.722C122.649 15.3032 122.548 14.934 122.398 14.6145C122.263 14.2808 122.034 14.0181 121.711 13.8264C121.389 13.6489 120.95 13.5602 120.395 13.5602C119.87 13.5602 119.454 13.6631 119.146 13.869C118.824 14.0749 118.588 14.3447 118.438 14.6784C118.295 15.0121 118.201 15.3742 118.156 15.7646C118.111 16.1764 118.089 16.5918 118.089 17.0106C118.089 17.4011 118.111 17.7916 118.156 18.1821C118.201 18.5939 118.295 18.9666 118.438 19.3003C118.588 19.634 118.824 19.9038 119.146 20.1097C119.454 20.3227 119.87 20.4292 120.395 20.4292Z" fill="white"/>
<path d="M109.889 22.5272V21.5474H109.844C109.626 21.9237 109.289 22.2006 108.831 22.3781C108.381 22.5627 107.759 22.655 106.964 22.655C105.659 22.6408 104.654 22.3142 103.949 21.6752C103.206 21.0504 102.835 20.2517 102.835 19.279C102.835 18.349 103.158 17.5786 103.803 16.9681C104.448 16.3433 105.392 16.0238 106.637 16.0096H109.889V14.8488C109.904 13.8761 109.105 13.404 107.492 13.4324C106.907 13.4324 106.446 13.4892 106.109 13.6028C105.756 13.7377 105.479 13.9649 105.276 14.2843L103.431 12.9531C104.324 11.8456 105.64 11.306 107.38 11.3344C108.85 11.3202 110.024 11.5829 110.901 12.1225C111.778 12.6763 112.225 13.6276 112.24 14.9766V22.5272H109.889ZM109.889 18.64V17.8413H107.076C105.711 17.8697 105.036 18.3135 105.051 19.1725C105.051 19.5488 105.227 19.8683 105.58 20.131C105.917 20.4221 106.476 20.5676 107.256 20.5676C108.239 20.5818 108.932 20.4718 109.337 20.2375C109.705 20.0032 109.889 19.4707 109.889 18.64Z" fill="white"/>
<path d="M88.9987 22.5272V7H94.7359C96.9558 7.0142 98.6207 7.88747 99.7307 9.61981C100.128 10.202 100.379 10.8126 100.484 11.4515C100.567 12.0905 100.608 13.1945 100.608 14.7636C100.608 16.432 100.544 17.5964 100.417 18.2567C100.357 18.5903 100.267 18.8885 100.147 19.1512C100.019 19.4068 99.8657 19.6731 99.6857 19.9499C99.2057 20.6812 98.5382 21.2847 97.6833 21.7604C96.8358 22.2716 95.7971 22.5272 94.5672 22.5272H88.9987ZM91.4848 9.22577V20.3014H94.4547C95.8496 20.3014 96.8621 19.8506 97.492 18.9489C97.7695 18.6152 97.9458 18.1928 98.0208 17.6816C98.0883 17.1775 98.122 16.2332 98.122 14.8488C98.122 13.4998 98.0883 12.5343 98.0208 11.9521C97.9308 11.3699 97.717 10.8978 97.3795 10.5357C96.6896 9.63401 95.7146 9.19738 94.4547 9.22577H91.4848Z" fill="white"/>
<path d="M80.5958 22.0905L76.4109 11.4728H78.8971L81.6645 19.2151H81.7095L84.4656 11.4728H86.963L81.9344 24.8168C81.612 25.6475 81.1657 26.2226 80.5958 26.5421C80.0183 26.8474 79.3658 27 78.6383 27H77.8621V24.902H78.5484C78.8558 24.902 79.1408 24.8239 79.4033 24.6677C79.6658 24.5044 79.8495 24.263 79.9545 23.9436L80.5958 22.0905Z" fill="white"/>
<path d="M66.9056 19.1512C67.858 20.0955 69.088 20.5676 70.5954 20.5676C71.2704 20.5676 71.8216 20.4434 72.2491 20.1949C72.6766 19.9464 72.8903 19.5985 72.8903 19.1512C72.8903 18.7536 72.7628 18.4767 72.5078 18.3206C72.2453 18.1573 71.8966 18.0685 71.4616 18.0543L69.3917 17.8839C68.4093 17.7987 67.6105 17.4863 66.9956 16.9468C66.3656 16.4214 66.0431 15.6865 66.0281 14.7423C66.0431 13.6063 66.4668 12.7543 67.2993 12.1864C68.1093 11.6184 69.1367 11.3344 70.3817 11.3344C70.9216 11.3344 71.4054 11.3663 71.8329 11.4302C72.2603 11.5012 72.6616 11.6006 73.0365 11.7284C73.7565 12.0053 74.4015 12.3781 74.9715 12.8466L73.5203 14.4547C73.0703 14.1494 72.5941 13.8974 72.0916 13.6986C71.5966 13.5211 71.0266 13.4324 70.3817 13.4324C69.6467 13.4324 69.133 13.5566 68.8405 13.8051C68.533 14.0536 68.3793 14.3731 68.3793 14.7636C68.3643 15.0121 68.4805 15.2286 68.728 15.4132C68.953 15.6191 69.3505 15.7504 69.9204 15.8072L71.8554 15.9457C73.0703 16.0309 73.9478 16.3788 74.4877 16.9894C74.9902 17.5857 75.2414 18.3419 75.2414 19.2577C75.2265 20.3298 74.7652 21.1569 73.8578 21.7391C72.9578 22.3355 71.8066 22.6408 70.4042 22.655C68.4993 22.655 66.7856 21.9947 65.2632 20.6741L66.9056 19.1512Z" fill="white"/>
<path d="M60.7076 22.5272V21.5474H60.6626C60.4451 21.9237 60.1076 22.2006 59.6501 22.3781C59.2001 22.5627 58.5777 22.655 57.7827 22.655C56.4778 22.6408 55.4728 22.3142 54.7678 21.6752C54.0254 21.0504 53.6541 20.2517 53.6541 19.279C53.6541 18.349 53.9766 17.5786 54.6216 16.9681C55.2666 16.3433 56.2115 16.0238 57.4565 16.0096H60.7076V14.8488C60.7226 13.8761 59.9238 13.404 58.3114 13.4324C57.7264 13.4324 57.2652 13.4892 56.9277 13.6028C56.5753 13.7377 56.2978 13.9649 56.0953 14.2843L54.2504 12.9531C55.1428 11.8456 56.459 11.306 58.1989 11.3344C59.6689 11.3202 60.8426 11.5829 61.72 12.1225C62.5975 12.6763 63.0437 13.6276 63.0587 14.9766V22.5272H60.7076ZM60.7076 18.64V17.8413H57.8952C56.5303 17.8697 55.8553 18.3135 55.8703 19.1725C55.8703 19.5488 56.0465 19.8683 56.399 20.131C56.7365 20.4221 57.2952 20.5676 58.0752 20.5676C59.0576 20.5818 59.7514 20.4718 60.1563 20.2375C60.5238 20.0032 60.7076 19.4707 60.7076 18.64Z" fill="white"/>
<path d="M41.5051 22.5272V7H51.9784V9.22577H43.9913V13.656H50.8085V15.7433H43.9913V20.3014H51.9784V22.5272H41.5051Z" fill="white"/>
</g>
<defs>
<linearGradient id="paint0_linear_6378_3422" x1="1.5828" y1="10.3667" x2="31.2562" y2="21.3819" gradientUnits="userSpaceOnUse">
<stop stop-color="#9BFF21"/>
<stop offset="1" stop-color="#1EFD9C"/>
</linearGradient>
<linearGradient id="paint1_linear_6378_3422" x1="13.6873" y1="9.90594" x2="17.1724" y2="15.9424" gradientUnits="userSpaceOnUse">
<stop stop-color="#1EFD9C"/>
<stop offset="1" stop-color="#9BFF21"/>
</linearGradient>
</defs>
</svg>
