<svg width="73" height="33" viewBox="0 0 73 33" fill="none" xmlns="http://www.w3.org/2000/svg">
<g clip-path="url(#clip0_369_2)">
<path d="M0 11.7256C0 7.56249 0 5.48093 0.835842 3.90229C1.51036 2.62835 2.55218 1.58653 3.82612 0.912014C5.40475 0.0761719 7.48631 0.0761719 11.6494 0.0761719H20.3662C24.5293 0.0761719 26.6109 0.0761719 28.1895 0.912014C29.4634 1.58653 30.5053 2.62835 31.1798 3.90229C32.0156 5.48093 32.0156 7.56249 32.0156 11.7256V20.4424C32.0156 24.6055 32.0156 26.687 31.1798 28.2657C30.5053 29.5396 29.4634 30.5814 28.1895 31.256C26.6109 32.0918 24.5293 32.0918 20.3662 32.0918H11.6494C7.48631 32.0918 5.40475 32.0918 3.82612 31.256C2.55218 30.5814 1.51036 29.5396 0.835842 28.2657C0 26.687 0 24.6055 0 20.4424V11.7256Z" fill="#F2F4F7"/>
<path d="M8.8063 22.6036C8.42205 22.8926 8.60628 23.5586 9.07057 23.559L26.1513 23.5721C26.6328 23.5725 26.8049 22.8664 26.3888 22.5977L21.2566 19.2832C21.0053 19.1209 20.9452 18.7474 21.1303 18.4987L27.7716 9.57759C28.1185 9.11164 27.5944 8.47305 27.1435 8.8122L8.8063 22.6036Z" fill="url(#paint0_linear_369_2)"/>
<path d="M23.2063 9.68309C23.5905 9.39406 23.4062 8.72806 22.9419 8.72776L5.86098 8.7168C5.37949 8.71649 5.2074 9.42254 5.62347 9.69125L10.756 13.006C11.0074 13.1683 11.0675 13.5417 10.8823 13.7905L4.24153 22.7109C3.89465 23.1768 4.41877 23.8154 4.8697 23.4762L23.2063 9.68309Z" fill="url(#paint1_linear_369_2)"/>
<path d="M54.5753 27.0944H38.5386V23.4663L49.5447 8.4052H38.7825V4.80762H54.3923V8.28325L43.2947 23.4968H54.5753V27.0944Z" fill="white"/>
<path d="M56.2559 19.5333C56.2559 14.8382 59.6401 11.6064 64.3047 11.6064C68.9694 11.6064 72.3536 14.8382 72.3536 19.5333C72.3536 24.2285 68.9694 27.4602 64.3047 27.4602C59.6401 27.4602 56.2559 24.2285 56.2559 19.5333ZM59.9754 19.5333C59.9754 22.2773 61.7438 24.137 64.3047 24.137C66.8657 24.137 68.634 22.2773 68.634 19.5333C68.634 16.7894 66.8657 14.9296 64.3047 14.9296C61.7438 14.9296 59.9754 16.7894 59.9754 19.5333Z" fill="white"/>
</g>
<defs>
<linearGradient id="paint0_linear_369_2" x1="16.0066" y1="8.7168" x2="16.0066" y2="23.5721" gradientUnits="userSpaceOnUse">
<stop stop-color="#310ED9"/>
<stop offset="1" stop-color="#6949FF"/>
</linearGradient>
<linearGradient id="paint1_linear_369_2" x1="16.0065" y1="8.71669" x2="16.0065" y2="23.572" gradientUnits="userSpaceOnUse">
<stop stop-color="#310ED9"/>
<stop offset="1" stop-color="#6949FF"/>
</linearGradient>
<clipPath id="clip0_369_2">
<rect width="73" height="33" fill="white"/>
</clipPath>
</defs>
</svg>
